<?xml version="1.0" encoding="UTF-8"?>
<svg id="Layer_1" data-name="Layer 1" xmlns="http://www.w3.org/2000/svg" viewBox="0 0 595.28 252.64">
  <defs>
    <style>
      .cls-1 {
        fill: #f59489;
      }

      .cls-2 {
        fill: #fefcf8;
      }

      .cls-3 {
        fill: #f7b81a;
      }

      .cls-4 {
        fill: #f37721;
      }

      .cls-5 {
        fill: #f9a831;
      }

      .cls-6 {
        fill: #f9ae33;
      }

      .cls-7 {
        fill: #d5cac0;
      }

      .cls-8 {
        fill: #f9b7af;
      }

      .cls-9 {
        fill: #e8e1dc;
      }

      .cls-10 {
        fill: #2e1c14;
      }

      .cls-11 {
        fill: #f7b51a;
      }

      .cls-12 {
        fill: #543c28;
      }

      .cls-13 {
        fill: #ef8023;
      }

      .cls-14 {
        fill: #2c1c13;
      }

      .cls-15 {
        fill: #f1887c;
      }

      .cls-16 {
        fill: #f8b81a;
      }

      .cls-17 {
        fill: #fcc518;
      }

      .cls-18 {
        fill: #f79f95;
      }

      .cls-19 {
        fill: #f6ab2d;
      }

      .cls-20 {
        fill: #e87825;
      }

      .cls-21 {
        fill: #fcec74;
      }

      .cls-22 {
        fill: #2d1c14;
      }

      .cls-23 {
        fill: #7c6459;
      }

      .cls-24 {
        fill: #fcea62;
      }

      .cls-25 {
        fill: #fccf20;
      }

      .cls-26 {
        fill: #fbf5f0;
      }

      .cls-27 {
        fill: #2f1d14;
      }

      .cls-28 {
        fill: #f49021;
      }

      .cls-29 {
        fill: #ee7d23;
      }

      .cls-30 {
        fill: #f47e21;
      }

      .cls-31 {
        fill: #fde55c;
      }

      .cls-32 {
        fill: #fcf4a9;
      }

      .cls-33 {
        fill: #fcf090;
      }

      .cls-34 {
        fill: #301e14;
      }

      .cls-35 {
        fill: #f08323;
      }

      .cls-36 {
        fill: #ef8022;
      }

      .cls-37 {
        fill: #e9aa20;
      }

      .cls-38 {
        fill: #f08022;
      }

      .cls-39 {
        fill: #fceb6f;
      }

      .cls-40 {
        fill: #f8b71a;
      }

      .cls-41 {
        fill: #f9a71c;
      }

      .cls-42 {
        fill: #f9a62e;
      }

      .cls-43 {
        fill: #f9aa33;
      }

      .cls-44 {
        fill: #efc0bc;
      }

      .cls-45 {
        fill: #fdfbf9;
      }

      .cls-46 {
        fill: #f7a198;
      }

      .cls-47 {
        fill: #503a2a;
      }

      .cls-48 {
        fill: #f38222;
      }

      .cls-49 {
        fill: #f07f22;
      }

      .cls-50 {
        fill: #fdc71a;
      }

      .cls-51 {
        fill: #f79e95;
      }

      .cls-52 {
        fill: #4e3929;
      }

      .cls-53 {
        fill: #ef7d23;
      }

      .cls-54 {
        fill: #fcea80;
      }

      .cls-55 {
        fill: #fbf4ab;
      }

      .cls-56 {
        fill: #201917;
      }

      .cls-57 {
        fill: #faa932;
      }

      .cls-58 {
        fill: #f18222;
      }

      .cls-59 {
        fill: #ef7f22;
      }

      .cls-60 {
        fill: #513826;
      }

      .cls-61 {
        fill: #ef897d;
      }

      .cls-62 {
        fill: #f9b819;
      }

      .cls-63 {
        fill: #fcee84;
      }

      .cls-64 {
        fill: #f9a62f;
      }

      .cls-65 {
        fill: #f9a731;
      }

      .cls-66 {
        fill: #fcfbf9;
      }

      .cls-67 {
        fill: #f7a197;
      }

      .cls-68 {
        fill: #f27822;
      }

      .cls-69 {
        fill: #f8b2aa;
      }

      .cls-70 {
        fill: #4e392a;
      }

      .cls-71 {
        fill: #f8a52d;
      }

      .cls-72 {
        fill: #ea7324;
      }

      .cls-73 {
        fill: #f9f298;
      }

      .cls-74 {
        fill: #fdd935;
      }

      .cls-75 {
        fill: #4b3728;
      }

      .cls-76 {
        fill: #f9a72f;
      }

      .cls-77 {
        fill: #f27022;
      }

      .cls-78 {
        fill: #f7a22b;
      }

      .cls-79 {
        fill: #f7a096;
      }

      .cls-80 {
        fill: #f69c91;
      }

      .cls-81 {
        fill: #523c2c;
      }

      .cls-82 {
        fill: #ed7e23;
      }

      .cls-83 {
        fill: #2c1c14;
      }

      .cls-84 {
        fill: #cd774c;
      }

      .cls-85 {
        fill: #f8a52e;
      }

      .cls-86 {
        fill: #342118;
      }

      .cls-87 {
        fill: #f08122;
      }

      .cls-88 {
        fill: #010100;
      }

      .cls-89 {
        fill: #493221;
      }

      .cls-90 {
        fill: #fce85b;
      }

      .cls-91 {
        fill: #f6a49b;
      }

      .cls-92 {
        fill: #f8a12d;
      }

      .cls-93 {
        fill: #fcf4ae;
      }

      .cls-94 {
        fill: #f8a630;
      }

      .cls-95 {
        fill: #faf39c;
      }

      .cls-96 {
        fill: #fbf184;
      }

      .cls-97 {
        fill: #f8ed7e;
      }

      .cls-98 {
        fill: #f15c24;
      }

      .cls-99 {
        fill: #ee7f23;
      }

      .cls-100 {
        fill: #ee8023;
      }

      .cls-101 {
        fill: #f9bfb8;
      }

      .cls-102 {
        fill: #fdfcfa;
      }

      .cls-103 {
        fill: #2d1b13;
      }

      .cls-104 {
        fill: #fce856;
      }

      .cls-105 {
        fill: #f38321;
      }
    </style>
  </defs>
  <path class="cls-22" d="M427.97,75.13c2.86,2.15,4.78,4.26,5.47,7.92.7,3.72-.65,10.46-2.03,14.15-2.43,6.52-7.16,13.34-11.65,18.59-1.24,1.44-2.97,2.51-3.82,4.25-.7,14.79-10.18,32.04-24.79,36.88-8.13,28.41-36.1,46.32-63.37,54.83-13,3.9-25.87,7.95-38.6,12.15-18.62,5.02-34.81,3.19-45.55-14.03-13.19,12.31-31.25,25.22-49.7,25.25-.1-.01-.36-.32-.59-.29-.08-.5.13-.75.6-.81l2.47-.1c4.92-1.6,2.53-3-1.13-.58l-2.12-.59c-3.63.25-7.25.35-10.85.33-2.64-1.26-5.36-1.83-8.14-1.72-1.47.07-4.3-2.1-2.85-3.27,1.24-.65,4.07.89,4.7,2.06l1.61-.12c3.28.9,6.68,1.28,10.08,1.36l.54.44c2.29-.13,4.58-.2,6.86-.21l1.17-.76c5.69-.91,11.15-2.92,16.23-5.61.49.23.95.21,1.39-.09l.22-.68c5.71-2.8,11.13-6.35,16.11-10.26l.7.09c1.57-1.8,3.34-3.45,5.29-4.94,1.89-1.24,2.42-2.6,1.61-4.08l-2.03-3.28.33-.92c1.88.47,3.63,1.42,5.25,2.86l-.96-3.97.49-.64-.7-.78c-.36-3.08-.41-6.23.13-9.3.44-2.47,1.3-6.35,3.5-7.54-.34-.58.12-1.15,1.38-1.72.51-2.24,5.11-4.73,7.25-5.43s10.02-1.53,11.97-.71c.47.2,1,.61,1.14,1.11,6.87.98,13.18,6.34,16.07,12.57.66,1.44,1.55,4.26.97,5.63-.83,1.18-2.26-.75-2.82-1.6-3.73-7.01-9.85-13.25-18.31-13.74-18.2-1.04-20.9,18.26-13.58,31.11,7.21,12.66,21.73,15.23,35.04,12.07l1.13.34c1.84-1.12,3.9-1.96,6.18-2.5,3.93-1.69,7.94-3.01,12.03-3.96,6.35-3.26,13.27-5.6,20.26-7.05l.77-.68c7.73-2.91,15.36-6.08,22.88-9.5l1.02-.09.8-1.09c16.87-9.31,33.24-22.94,37.49-42.27,2.36-1.47,4.87-2.67,7.53-3.61.02-1.35,2.03-2.04,3.23-2.35l.65-1.28c6.57-5.43,10.82-12.93,13.11-21.07l.92-1.13c-.32-1.82-.13-5.52.56-7.22.34-.84.8-1.86,1.79-1.29l.72-1.42c8.34-7.43,14.14-17.57,15.94-28.24l.67-.28c.24-.69.31-1.99,0-1.76l-.68-.51c-.79-3.53-3.06-6.12-6.81-7.79l-.15-.8c-.75-.24-1.34-.63-1.76-1.17-1.79-.06-3.21-2.08-.79-2.59,2.65.93,5.16,2.09,7.55,3.47Z"/>
  <path class="cls-14" d="M275.85,64.85c.97-.45,1.86-1.07,2.68-1.87,1.26-1.17,3.44,1.61,1.72,2.45-.04,1.08-1.84,2.86-2.94,2.64-1.41,1.24-2.49,2.71-3.23,4.4-.08.46-.28.95-.59,1.47.21.44.08.94-.41,1.47-1.19,2.63-1.6,4.89-2.1,7.68-.05.26-.15.44-.43.54,4.86.12,9.79,2.63,12.49,6.86.6.93,1.65,2.64,1.22,3.56,26.38-9.16,52.55,12.47,46.54,40.12l19.6,1.11c1.96,1.05-1.31,1.75-2.32,1.78-1.53,1.2-4.54.99-6.46.59-.16.56-.42.56-.59,0-3.04.42-5.92.6-8.98.18-.23-.03-.44-.15-.66-.28s-.44-.31-.64-.49l-.75.48-5.97-1.11c-2.65-.28-6.03-.22-7.88,1.89.58-.15.95.02,1.09.5.84.31.55,1.07-.29,1.17l-.29.67c-3.95,1.59-7.27,4.31-6.21,9.06.24,1.06.81,2.92,1.8,3.19.44-.43.6-.27.29.29l.65.27c.15,3.34,2.29,5.78,4.73,7.97,3.88,3.47,8.54,5.96,13.2,8.2l.5.88c.15-.19.37-.46.54-.41,1.76.6,7.69,2.91,8.98,3.81l.17.71c-.03.23-.09.55-.26.59-.95.19-4.17.26-4.59-.59-.02.14-.06.28-.13.39-.47.73-8.99-2.74-10.13-3.36-6.14-3.29-12.3-6.96-15.9-13.14-13.48,4-30.09,1.64-40.69-8.08-2.06-1.89-4.83-4.51-5.25-7.22-.34-.08-.73-.17-.96-.46-1.32-1.62-3.6-7.87-3.84-10.01.28-.28.42-.6.4-.99-.54-.8-.7-2.58-.59-3.67-.3-1.92-.3-4.22,0-6.17.25-2.67.8-5.25,1.63-7.76-.81-.1-3.82-.63-3.96-1.33-.03-.15-.03-.3-.02-.45-.41-.92.08-1.12,1.47-.59l.4-.6c3.03.42,5.23-1.14,6.35-3.8-.29-.86.46-1.06.88-.29.56-.08,1.13.13,1.71.63,4.01.92,6.57-2.64,6.47-6.39l.63-.41c-.75-2.26.64-2.63,1.17-.29l.39-.08c.58,1.15,1.33,1.78,2.84,1.54l-.03-.64c1.49-1.28,2.26-3.88,2.08-5.82l-.7-.54c-3.01-10.91-18.67-7.79-25.23-2.05l-.79-.06c-2.75,2.31-4.94,5.23-7,8.15l-.93.36.18.82c-1.44,2.17-2.48,4.56-2.75,7.17l-.66.52.44,1.39c-.26,2.21-.1,4.44,1.19,6.32l-.16.8c-.37.36-.96.26-1.76-.29-.94.41-2.06-1.12-2.55-1.91-.71-1.14-.98-2.24-1.08-3.56-1.52.5-2.95.56-4.3.19l-8.38,2.6-1.02-.25-.69-.06c-1.55-2.63-4.72-.25-6.39,1.05,1.16.38,1.75.93,1.79,1.66.14.87-1.4,1.81-2.06,1.17-.4.78-1.24,1.64-2.06.88-.89.44-.81-.45-.29-1.11.07-1.39-3.57.42-4.12.87l-.58-.35c-.04-.61.83-1.02,1.3-1.34,8.4-5.67,15.45-8.36,25.52-9.55,3.1-.37,2.36-2.33,3.28-4.67,3.49-8.85,12.98-16.92,22.17-19.25.65-.17,1.29.08,2.11-.2,1.88-.63.63-1.06.81-2.09.04-.21.6-.17.62-.37.04-.38-.29-1-.26-1.64.15-2.94,2.64-8.08,4.35-10.51,1.24-.77,2.79-2.63,2.94-3.52.53-.57.92-.94,1.47-1.47Z"/>
  <path class="cls-10" d="M197.73,137.96l.05,1.02c-1.6,2.93-3.18,5.82-4.74,8.67.26.08.25.18,0,.29.36,1.23-1.15.97-1.08-.25-.86.19-1.22.96-1.07,2.31h-1.08s-.81.41-.81.41c-4.38-.95-8.04,1.02-10.37,4.64-8.82-.74-11.1,5.79-8.54,13.47,3.58,10.73,14.44,22.23,25.31,25.71,2.35.75,3.05.53,4.9-.96,3.57-1.09,7.39-1.24,11.1-1.32l.72.6c.51-.86,2.64-.32,2.94.59,1.26-.08,2.52.16,3.77.71.96-.44,2.52.73,3.4,1.43.83.65,2.58,2.35.75,2.27l-.95.2c-5.62-2.3-11.91-2.67-17.9-1.94l2.65.86c.56.47.6,1.22-.16,1.48-2.3.25-4.49.75-6.58,1.51,1.04.59,1.35,1.16.92,1.71l-.65.55c-6.19-.2-12.88,1.51-17.26,5.9.67,1.47-.21,2.06-2.64,1.76-.45.7-1.23.58-1.76,0l-.39.6c-4.78-.27-9.03.74-12.77,3.03-.43.7-.94,1.06-1.53,1.07-4.39,2.8-3.28-.24-1.49-3.34.05-.09.17-.14.32-.18,1-.64.5-1.06,1.17-1.6,2.12-1.69,6.28-2.62,8.96-2.8,1.52-.11,5,.32,6.12-.05.58-.19.68-1.29,1.21-1.74.83-.7.46-.39,1.16-1.15.17-.18,3.11-2.21,3.4-2.35l.51-.89c2.76-1.22,5.73-1.77,8.68-2.26-14.53-4.61-26.73-19.26-29-33.83l-.15-.31c-.25-1.85.05-.74.27-1.39.51-1.5.34-2.95.85-4.39,1.18-3.34,4.74-6.19,8.22-6.78,1.34-.23,1.7.53,3.26-.82,3.14-2.7,4.15-3.64,8.7-3.94,1.05-.07,2.48.49,3.2-.02.34-.25,2.94-5.81,3.49-6.79.82-1.46,1.66-2.69,2.56-4.05.97,0,.99.67.05,2.03,1.21-.33,1.97-.22,2.3.31Z"/>
  <path class="cls-103" d="M275.85,64.85c4.36-4.18,9.97-6.89,16.01-7.63.98-.12,2.29.2,3.17-.06.5-.15,1.95-1.71,2.58-2.12,1.63-1.08,4.11-2.11,5.54-3.27s2.97-4.71,4.13-6.44c5.57-8.29,15.2-19.53,24.66-23.49,16.73-7,23.32,12.65,28.11,24.54,1.05.59,2.12.43,3.26.78,7.81,2.39,15.27,5.58,21.89,10.41,3.03,2.21,6.64,5.19,9,8.03,1.86,2.23,5.35.75,7.76,1.05,7.83.97,19.71,3.75,26.01,8.49-.19.62-.87-.01-1.15-.17-.89-.5-6.55-4-7.07-2.32-.15.86.84,1.18,1.47,1.61.39.38.23.44-.29.29-2.1-.21-4.2-.76-6.3-1.64-2.49-.44-4.8-1.16-6.91-2.17-1.28-.52-2.86-.84-4.73-.97l-.26-.21c-.48-.63-.77-.63-.88,0,.26.08.25.18,0,.29-.41.82-1.67.86-2.06,0-1.82-.09-3.58-.19-5.29-.29-.49.46-1.04.26-1.67-.6-.81-.71-2.78-2.61-2.44-3.51l.38-.59c2.64.51-1.24-2.45-.68-.37l-.59.37c-1.02.18-3.31-1.25-3.23-2.35l-1.04-.06c-1.88-1.53-3.83-2.95-5.86-4.27l-.44-.95c-2.79-.64-6.12-2.19-8.22-4.11-1.53.15-3.6-.43-4.41-1.76l-.29-.29c.25-1.45-.43-1.65-2.06-.59-1.07.64-4.36-.09-4.99-1.17-.23-.49.19-.98,1.26-1.47-.96-.6-2.77-.99-2.04.65l-.4.53c-.71.76-3.12.39-3.52-.59-1.64.42-3.76.32-4.99-.88-.26-.08-.25-.18,0-.29,1.3-.73,2.83-.98,4.57-.75.25-.45.77-.59,1.55-.43-.71-2.75-1.78-5.41-2.89-8.02v-1.38c-.11-1.26.98-.43,1.56.26.64-.41-2.27-6.78-1.72-1.97-.19.21-.43.28-.72.24l-.85-.33c-1.55-2.81-3.22-5.61-5.51-7.88l-.11-.89.15-.69c4.1,1.08-.57-3.3-.18-.29l-.56.39-.88.1c-3.62-2.6-7.87-1.63-11.51.42l-.83-.22c-.46-.32-.33-.86.4-1.64-.75-.64-4.75,1.64-4.56,1.92,1.58-.24,2.38.06,2.4.89l-.03.72-3.71,2.45-.66-.23q-.46-.32,0,0l-.26.97c-5.19,4.55-9.68,9.93-13.49,15.67l-.94.38c-.61-.04-1.12-.62-1.54-1.74-1.65,1.58-1.49,1.92.39,2.21.2.03.26.42.26.71.48.3.41.6.13.99.85-.51,1.49-.54,1.93-.11.7-.45.91-.07.47.66-2.25.92-1.94,1.24.91.97l.09.72-.7.88c-4.12,1.56-8.39,3.24-11.73,6.15,1.2.19,5.96,3.13,3.55,4.01l-2.57-.76c-.45.36-.61.19-.29-.29-.87.16-1.9.03-2.64-.29l-.56.26c-5.94-.42-11.78.71-16.77,4.06l-1.18.08c.96-.5-.86-2.3-1.05-2.35-.69-.17-2.23,2.27-3.36,1.76Z"/>
  <path class="cls-62" d="M418.7,40.98c.16.44.46,1.59.67,2.06,1.16,2.56,3.52,4.22,5.99,5.49.77.4,2.91.66,2.92,1.5.01.99-1.9,1.39-2.66,1.33l.3.58c-.83-.04-2.33.5-2.93,1.03-.57.5-.44.97-.67,1.23-.29.34-1.51.59-2.01,1.4-.32.52.02.81-.05.97-.03.08-.97.66-1.22,1.25-.31.74-.89,4.57-2.05,4.37-.84-.15-1.05-2.39-1.34-3.08-.6-1.41-1.8-3.42-2.78-4.55-.12-.14-2.64-2.07-2.82-2.18-.51-.3-1.45-.35-2.05-.45l.3-.58c-.83.36-2.62-.59-2.64-1.32,0-.11,1.58-1.26,1.69-1.31,1.23-.58,2.66-1.07,3.96-2.08.34-.26,2.44-2.23,2.5-2.39s-.27-.51-.08-.82c.31-.49,1.36-.58.75-2.06l.58.3,1.22-4.97c1.83.11,1.86,2.72,2.44,4.28Z"/>
  <path class="cls-40" d="M261.3,44.5c.45,1.03.94,2.63,1.57,3.83.31.6.84,1.92,1.23,2.3,1.19,1.18,4.14,2,5.29,2.93,2.07,1.68-2.08,2.08-3.14,2.69-.22.13-2.4,1.99-2.55,2.16-1.65,1.93-1.83,5.24-3.54,7.02-1.36-.73-1.27-2.64-1.78-3.52-.12-.21-.57-.23-.65-.34-.1-.14.47-1.96-.65-1.12-.12-.73-.45-2.17-1.18-1.47.08-1.91-2.36-2.5-3.74-3.07-.06-.03-.07-.46-.26-.48-.33-.03-.87.35-.97.29-.08-.05-.92-1.47-.9-1.56.14-.68,3.42-1.62,4.25-2.23.59-.44.75-1.02,1.13-1.37.22-.19.71-.15,1.08-.52,1.69-1.7,2.33-6.33,3.05-6.94,1.14-.97,1.44.63,1.77,1.39Z"/>
  <path class="cls-10" d="M192.74,234.84c-8.24.47-17.11.06-24.44-4.51-4.48-2.8-7.3-5.88-7.97-11.33-.47-3.84,3.66-2.46,2.99.63l.64.54.72.22c1.46,2.97,3.94,5.3,6.76,6.95.08.27.02.52-.14.75.08.14-.02.57.28,1.03,1.59,2.49,3.51,1.37,5.67,1.68,1.52.22,4.18,1.52,5.11,1.7.19.04,3.04-.03,3.77-.01,2.36.06,4.95-.38,7.05-.32.92.03,1.53.59,2.05.6.87,0,2.93-2.27,4.55-1.14-.12,2.25-2,2.82-3.96,2.95-1.45.09-.78-.33-2.5.27-.08.03-.53.03-.59,0Z"/>
  <path class="cls-34" d="M216.53,120.05l-.41.94c-2.96,1.9-5.71,4.13-8.31,6.5l-.59.12c-3,3.09-5.87,6.45-8.53,9.98l-.96.36c-.8-.12-1.93.62-2.65.16-.9-.57,1.07-1.82.3-2.51.78-1.19,1.38-2.31,2.03-3.38.5-.83,1.69-.97,1.95-1.32.16-.21-.08-.64.02-.89.32-.78,1.37-.76,1.52-.94.13-.16.08-.83.48-1.42.63-.92,4.33-4.16,5.3-4.99.32-.27.91-.03,1.34-.41.24-.22.03-.64.41-1.03.82-.83,2.18-1.29,3.11-1.77,1.17-.59,4.69-2.94,5.26-.68.17.67-.81,1.01-.27,1.27Z"/>
  <path class="cls-16" d="M439.23,124.64c.86.75,2.74.87,2.81,1,.08.15-.08.62.07.79.34.39,2.41-.06,2.02,1.66-.04.19-1.99.74-2.31,1.27-2.53-.13-3.76,3.33-4.38,5.35l-1.41,2.93c-2.21-1.33-1-5.13-3.47-6.24-.37-.16-.77.11-.79.08-.12-.24.21-.76-.19-1.21s-1.81-.86-2.46-.56l.3-.58c-1.2.24-2.81-.41-2.33-1.87.12-.38,3.61-1.68,4.38-2.39.25-.23,1.85-2.12,2.01-2.39.36-.62,1.46-6.41,2.83-4.5.45.63.8,3.73,1.5,4.96.1.17,1.24,1.55,1.4,1.69Z"/>
  <path class="cls-3" d="M245.3,63.97c.01.63.1,1.3.31,1.9.27.79,1.48,3.05,2.02,3.56.71.67,3.26,1.13,3.26,2.32s-1.8.99-2.43,1.32c-.08.04-1.22,1.18-1.3,1.27-.69.86-1.64,3.78-2.29,3.89-1.32.23-.9-.8-1.06-1.11-.23-.47-.83-1.88-.9-1.97s-1.2-.25-1.93-.98c-.07-.07.11-.41.03-.52-.8-1.04-1.84-.2-1.88-.29-.06-.16.12-.61-.06-.81-.16-.18-.79-.11-.99-.35-.79-.96.34-.81.63-1,1.47-.97,1.92-1.51,3.17-2.73.15-.14.57-.06.68-.17,1.27-1.18.39-4.82,2.73-4.34Z"/>
  <path class="cls-22" d="M162.78,210.76c.3,1.84-1.52,2.79-1.47,4.4.11.15,2.01-1.95,2.64-.88l.37.62c-.53,1.51-.38,3.16.05,4.67l-.43.59c-2.13.31-.78-.9-.87-1.86-.04-.39-2.86-2.52-2.34.81.94,6.11,4.68,10.04,10.34,11.98.5.17,1.09.91,1.71,1.22,2.21,1.1,13.11,2.7,15.69,2.53,1.08-.07,2.62-.7,3.51-.61.64.07.7.58.74.6-2.5.89-4.75.34-7.2.27-1.51-.04-3.02.19-4.6-.04-7.2-1.03-16.25-4.59-19.73-11.42-1.83-3.6-1.98-9.76,1.01-12.77.48-.48.54-.1.57-.12Z"/>
  <path class="cls-103" d="M274.38,66.32c.83.43.01.83-.19,1.09-.57.74-1.76,2.87-2.75,2.43.87-1.23,1.99-2.51,2.94-3.52Z"/>
  <path class="cls-26" d="M341.63,46.95c-.02.73-.41,1.53-1.15,2.41.66.85.44,1.93-.67,3.24-.49,1.29-1.66,5.62.35,5.51,1.01.45.82,3.62,0,4.26,1.01-1.61,1.63-.96,1.87,1.95l2.37,2.97c1.72.21,3.27,1.01,4.65,2.41,5.92,1.18,7.49,6.47,8.69,11.9,1.52,13.66,5.79,26.03,13.45,37.39,2.36,4.04,3.51,8.03,2.17,12.56-.34,5.22,5.06,12.66,9.52,15.13,1.43-.65,1.82.16,2.11,1.4.64.84,6.21,2.15,7.53,2.08l.49.43c-.68.43-1.34,1.07-2.15,1.52-1.14.63-4.29,1.68-4.91,2.43-.47.57-1.3,4.91-1.75,6.18-5.6,15.96-22.54,29.23-37.01,36.84l-.57-.43c-.16-2.57-1.4-4.52-3.73-5.65-1.33-1.43-2.78-2.66-4.33-3.7.53-.87-.15-1.32-2.03-1.34-.67-.7-.63-1.36.38-1.2-.67-.37-1.36-.66-2.06-.88-.65.99-3.5.49-3.34-1.05-7.73-2.64-15.62-3.63-23.25-.11-1.22.57-2.14.57-2.77-.02-.98.72-1.89.68-3.03.4-4.82-1.37-9.49-3.68-14-5.98l-.7.37-5.46-2.02-.3-.7.29-.61c5.7.06,11.59-2.11,16.37-5.28,2.99-1.33,5.36-1.3,8.56-.96,1.83-.03,2.83-.1,2.35-2.03l-21.17-4.84c-9.68-2.59-19.66-7.8-25.27-16.2l.37-.62c-.73-.48.05-1.74.88-1.47,9.54,15.29,29.54,19.34,46.12,14.82,4.17,6.33,11.06,11.07,18,14,1.48.62,6.68,2.59,7.98,2.59h4.85l-9.69-4.11c-.82-.41.62-2.65,1.47-2.35,1.05-.25,2.2-.03,3.44.66,6.85,1.17,13.67,2.11,20.47,2.84l3.25-.59c7.84,2.44,19.83-2.51,16.15-12.57-.49-1.85-1.28-2.38-2.65-3.28.17-3.12-.65-4.21-2.91-6.15-.84-1.8-1.56-2.65-3.22-3.81-5.58-3.88-11.86-7.3-18.79-7.64l-.76-.59,2.64-1.17-20.85-1.18c4.51-16.95-4.61-34.22-21.07-40.15-7.84-2.83-16.79-2.23-24.73-.09-.95-4.64-5.21-8.3-9.58-9.65-.92-.28-3.78-.52-3.95-1.19.07-.7.34-.73.88-.29,3.74-4.94,9.99-6.22,15.95-6.57,4.83-.28,9.95.29,14.59,1.28l.66-.25c5.27,3.31,11.27.38,7.14-5.93l.42-.58c-.51-.42-.83-1.05-.94-1.9-.51-1.16-1.08-2.29-1.7-3.38l-.74-.1c-1.17-1.7-2.98-2.83-4.88-3.59l-.25-.72c.29-.34,3.03.79,2.64-.14-.44-1.06-3.73-2.84-4.99-2.8,3.78-3.47,8.99-5.61,13.8-7.34.18-.22.37-.44.58-.62,1.81-1.55,10.78-3.34,13.65-3.78s11.31-1.42,13.51-.43c.26.12.5.27.74.44Z"/>
  <path class="cls-26" d="M235.32,113c1.66-.29,3.32-.62,4.99-.88-.26,2.95.94,4.36,2.94,6.16,2.61,1.21,5.3,2.15,8.08,2.82l.44.7c.34.47.93.86,1.76,1.17.74-.87,1.18.45.44,1.18-1.43,1.1-2.96,2.07-4.57,2.9l6.24-.41c.58-.03,1.11.07,1.56.48.36,6.12,2.52,12.21,6.4,16.91l-.07.67c1.12,2.81,6.01,6.96,8.67,8.8,9.05,6.24,15.8,7.4,26.34,9.78,3.79.86,7.59,1.73,11.35,2.62,2.11,4.25-4.11,2.85-6.26,2.86-4.71.01-6.42,2.67-10.44,4.27-2.34.93-4.8,1.43-7.28,1.84-1.1.18-.97.33-1.13.36-.78.17-1.9-.11-2.74,0l-.56.47c-2.7-.27-5.41-.26-8.13.05l-2.76-.52c-.29.54-.69.65-1.26.54l-3.74-.83c-1-.09-1.28-.56-1.37-.58-2.36-.55-9.17-.02-11.54.74-1.02.32-5.89,3.12-6.48,3.83-.42.51.18,1.01-1.02,1.9-.49.36-.67-.1-1.32.87l-.9.57c-9.92-.63-18.79-6.41-24.87-14.09l-.36-1.46-.84-.17c-1.09-1.16-2.58-4.12-2.39-5.7l-.78-.16c-1.39-1.86-2.65-5.91-3.12-8.21l.38-.72c-1.9-5.52-1.03-11.41.48-16.79l.69-.23c-.16-1.87.5-2.99,2.06-4.11l-.31-.66c1.27-2.51,2.92-4.74,4.96-6.69h.64c.84-1.34,2.79-3.44,4.15-4.52,3.57-2.83,7.39-4.63,11.7-5.75Z"/>
  <path class="cls-76" d="M344.86,46.95c.83-.99,3.66-.29,4.41.59,1.65.22,3.35.59,4.99.88l-.02.7-2.63,1.29.09.84c-2.82,2.47-3.89,4.59-4.52,8.31-.39,1.17-.96,1.81-1.72,1.92.23.03.56.09.59.25.07.43.09,4.71,0,5.06l-.59.41.37-.59c2.24-.24,3.79-2.1,5.1-3.76,1.11-.04,2.12-.65,3.03-1.84,1.85-1.39,3.8-2.59,5.87-3.59.17-.97.98-1.47,2.41-1.49,2.14-1.9,5.66-2.82,8.47-2.83,2.89,1.22,5.52,2.51,8.22,4.11l-.44.7c-3.46.26-5.87,1.37-8.52,3.44-2.4.28-2.92.57-4.55,2.1-1.85,1.73-4.77,5.06.08,3.77,5.32-2.5,10.73-4.05,16.23-4.66,1.63.52,3.14.5,4.54-.06,1.02.79,2.15,1.35,3.23,2.35.71-.35.81-.12.59.59l-1.09.65c-3.22.13-6.35.7-9.48,1.47-.62.15-7.34,4.11-6.89,4.52,1.26,1.13,6.43,1.19,8,.08,2.13-.39,2.52-.22,4.36.89,2.56-1.36,3.98-1.1,4.27.8,1.19.22,2.19.62.83,1.53,1.45-.02,2.65.76,3.6,2.33,2.65,1.36,5.16,3.02,7.54,4.97.18-1.33,1.86-1.26,1.5.07.4-.59.82-.35,1.06.27.65,1.64,3.24,8.78,3.18,9.81-.01.26-.07.52-.13.78,3.54,4.51,4.19,11.63,3.61,17.26-.29,2.8-.78,6.62-2.73,8.58-1.17.77-1.99.13-2.46-1.92-.79.04-1.41-.53-1.86-1.7-.77-1.1-1.16-1.65-2.57-1.66-.89-1.54-2.04-2.44-3.47-2.69-.27-1.2-.7-1.48-1.8-1.99l-2.06-.96c-.26-.76-.87-1.23-1.84-1.4-1.2-1.18-2.8-1.86-4.82-2.05-1.01-1.2-2.51-1.88-4.5-2.03-1.79-.16-3.5-.56-5.15-1.21l-.49.55c-3.1-.76-5.84-.54-8.24.66-2.16,5.48,7.65,10.85,12.29,9.56l.56.39.68.22c2.27,3.54,4.3,7.19,6.1,10.93.02,2.37.57,3.95,2.01,5.79.55,1.02,1.32,2.79,0,3.38.68,3.1,1.02,6.19,1.02,9.26.75.06,1.12.67,1.12,1.83l.88,1.51c.89-.31,1.41.2,1.57,1.55.83.1,1.36.35,1.6.77-1.24.97-1.89,1.49-3.23,2.35-1.57.76-3.04-.33-4.4-.69-1.12-.3-2.98-.27-3.98-1.35-.77-.84.08-1.78-1.31-1.48l-.14.58c-.78-.74-1.82-1.08-2.64-1.77-1.59-1.34-4.81-5.19-5.8-7.12-.42-.83-1.86-4.83-1.97-5.66-.3-2.28.88-4.32.57-6.74-.72-5.54-6.6-13.02-9.07-18.24-1.88-3.97-3.94-9.87-4.95-14.14-1.35-5.76-1.51-12.2-3.79-17.64-.26-.62-1.82-3.7-2.15-4.02-1.03-1-3.39-1.43-4.63-2.12-1-.55-1.92-1.8-3.11-2.2-.73-.24-1.29.08-1.35.04-.19-.12-2.72-3.29-2.81-3.5-.32-.78-.29-2.05-.46-2.92l-.29,1.17c-.19.02-.58-.39-.58-.44v-4.26l-.59,1.17c-1.77-1.69-1.07-4.77-.3-6.91.21-.6,1.37-1.93,1.11-2.42-.03-.06-.51-.06-.53-.23-.13-.8,1.12-2.27,1.78-2.77.71-.97,2.42-.8,3.23,0Z"/>
  <path class="cls-102" d="M282.6,193.15l.74.31c4.01,6.41,5.7,11.76,4.94,19.56-.34,3.54-1.09,6.52-4.21,8.31-11.36,2.77-23.8,2.14-32.49-6.56-12.41-12.42-11.71-39.51,10.91-37.47,7.08.64,12.2,5.5,16.08,10.94,1.14,1.59,1.99,4.57,4.04,4.91Z"/>
  <path class="cls-47" d="M377.17,101.85c3.52.27,6.67.63,9.97,2.08l-.27.55c1.16.53,2.72.51,3.82,1.03.73.35.74.83,1.24,1.13.34.2,2.68.69,2.09,1.08-.14.09-.51-.2-.4.29.96.29,4.01,1.76,4.4,2.5.13.25-1.09-.06-.3.59,1.75-.41,3.11,2.54,3.68,2.78.28.12,0-.69.29-.59.84.31,3.06,3,3.09,4.11l.29-.88c1.06.6,1,2.18,1.76,3.09v-1.03c.37.12.64.58.88.88,1.78.54,3.01,3.45,3.23,5.28-2.53,9.55-6.98,17.46-14.68,23.49-1.7.21-2.59-.23-2.35-2.05l-.88.74c-.8-1.39-1.83-2.27-1.47-3.97l-.87.88c-.47-1.23.15-2.28-.03-3.64-.23-1.7-.97-3.93-1.16-5.89-.07-.72.06-1.48.01-2.21l.58.88c.67-2.2-1.86-4.11-2.29-5.8-.28-1.11.06-2.17-.59-3.79-1.19-3-5.41-8.21-5.93-10.36l-.81-.68c-2.49-1.05-7.27-5.42-1.36-4.59l2.84,1.07c-.04-2.88-2.49-4.79-4.71-6.22l-.06-.73Z"/>
  <path class="cls-81" d="M305.51,183.17c2.7-.22,6.18-2.01,9.04-2.56,5.77-1.11,10.83.48,16.3,1.75.37.09,1.54.66,1.68.96l-.58.44c.97.56,1.89.42,2.93.59.69.22,1.38.51,2.06.88,0,.1-.36.5-.29.58.37.44,3.09-.12,2.94,1.47l-.88.29c.7,0,1.22.36,1.73.76,1.68,1.3,2.36,2.66,4.12,3.5,1.61.77,2.85,3.97,2.66,5.72-8.17,4.3-15.98,7.27-24.67,10.28-.78.17-.83.02-.29-.59-1.07-.31-1.04-.67-.88-1.76-.32-.45-.28-1.07.11-1.85-.42-.67-.75-1.33-1-1.97-.9.1-.87-.6-.69-1.34-1.84-1.37-2.72-2.96-2.65-4.78-1.58-.52-2.31-1.29-2.21-2.31-1.46-.73-2.68-1.85-3.65-3.34-2.38-.73-4.09-2.05-5.15-3.96-1.89-.88-3.48-2-.63-2.75Z"/>
  <path class="cls-70" d="M222.99,197.55l.62-.33c1.36.5,3.45,2.16,3.79,3.65,1.67-.46,4.7,7.05,4.56,7.65l-.45.48c.47.09.56.52.28,1.3.73,1.73.44,3.06-.86,3.99-.98,1.39-7.86,5.72-9.72,6.87-1.99,1.23-5.17,3.4-7.32,3.99-3.25,2.21-.45-3.43.15-3.75.12-.06.27-.07.43-.06l-.43-.63c.61-2.1.19-3.65-1.21-5.19l-.07-2.55c-.33-.03-.66-.18-.82-.5-.61-1.23-1.1-2.54-1.53-3.83-2.05-.73-3.38-1.89-4-3.46-1.69-.51-3.06-1.3-4.11-2.37-1.21-.04-3.03-.63-1.33-1.43-.64-.96-1.46-1.17-2.05-2.05,2.53-1.02,5.25-1.33,7.93-1.77-.14-.51-1.23-.66-1.7-.79-1.25-.37-2.56-.72-3.88-.67-.07-.4.52-.44.81-.51,6.03-1.31,15.35-.82,20.92,1.98Z"/>
  <path class="cls-26" d="M217.7,166.73c3,4.16,7.48,8.3,11.95,10.81,4.2,2.36,9.35,4.21,14.19,4.16-3.37,5.09-3.8,11.72-2.94,17.61-.1.21-.26.53-.44.52-1.26-.13-7.43-1.22-8.14-1.69-1.65-1.66-3.36-3.16-5.15-4.66-.57-.65-.98-1.45-1.25-2.38l-1-.27c-6.6-6.87-9.88-14.17-7.86-23.75l.63-.34Z"/>
  <path class="cls-38" d="M282.02,175.24c1.82.5,4.52,1.67,6.46,2.35,3.83,1.84,7.28,3.59,10.36,6.73.69.7,1.14,1.5,1.53,2.4,1.59.42,2.27,1.51,2.03,3.1.24,1.39.45,1.78,1.81,2.15l.45,3.07c1.71,1.24,2.28,2.54,1.71,3.92,1.65.94,2.14,2.72,1.46,5.34l.2,1.45c3.93-1.12,7.75-2.57,11.46-4.34l1,.25c.05.09.63.13.79.37,1.35,2.12.74,1.74.09,3.44-.3,1.02,0,1.6.88,1.76,0,.14.24.41.29.59-6.77,2.34-13.53,4.62-20.26,7.05l-.67.02c-4.74,2.05-5.86.02-1.83-3.29,1.72-4.73,1.26-9.81-1.48-13.98l-.35-3.35c-1.04-.17-1.49-1.14-1.82-2.02-.53-3.37-1.89-4.05-4.96-5.06l-.97-1.11c-.44-1.57-1.72-2.61-3.82-3.13-4.97-1.92-9.99-4.09-14.76-6.64-.45-.24-.76-.67-1.05-1.07,3.17.09,8.64-.78,11.45,0Z"/>
  <path class="cls-65" d="M270.56,175.24c3.66,1.46,7.1,3.4,10.67,5.04,1.85.85,8.04,2.83,9.03,4.19.29.4.22.97.44,1.32,1.07,1.66,1.94,1.23,3.37,1.91,2.64,1.26,1.87,3.74,3.23,5.58.42.56,1.02.38,1.14.49.14.13.18,2.92.44,3.8.41,1.42,1.34,2,1.77,3.22.36,1.03.87,5.87.72,6.88-.04.27-.99,3.98-1.07,4.18-.3.73-2.71,2.65-2.72,2.88.39.45,1.42.64,1.96.63,1.02-.02,1.87-1.13,2.73-.49-5.96,2.15-12.03,4.96-18.21,6.46.71-1.62,2.26-2.28,2.8-4.11,1.52-5.22,1.31-11.89-.6-17.02-.92-2.47-2.92-4.74-3.66-7.05-.57-1.76-.73-3.61-1.51-5.39-2.73-6.26-9.16-10.8-15.53-12.81,1.49.13,3.43.25,4.99.29Z"/>
  <path class="cls-75" d="M178.64,209.59c1.79.4,3.33,2.41,2.58,4.27,1.21.81,2.65,2.23,1.17,3.42,1.32,1.99,1.07,3.49-1.09,4.47,1.26,1.41,1.92,3.13-.31,3.98,1.04,2.28-2.96,4.73-4.99,4.4-1.61-.55-3.06-1.57-4.7-2.06-.39-.71-1.78-1.16-2.49-1.77-1.8-1.55-4.06-3.9-4.85-6.16-.62-1.77-.84-4.15,0-5.87,2.16-4.39,10.53-4.54,14.68-4.7Z"/>
  <path class="cls-87" d="M183.05,207.83c.7-.72,1.66-1.55,2.9-2.48.96-.08,10.06,3.77,8.59,6.31,2.21,1.13,5.97,9.99,5.2,12.02-.92.47-1.01.98-.29,1.54,1.07.42,1.19,1.39.35,2.91,4.95-1.67,9.42-4.44,13.61-7.45.75-.33,1.25-.19,1.06.66-.37,1.14-1.08,2.66-1.76,3.67-.25.66,1,.19,1.17.14-5.69,3.19-12.26,5.64-18.79,6.46-2.15-.02-4.3.06-6.45.23-2.75.06-.59-2.11.7-3.08,1.73-2.58,2.02-5.27.51-8.03.21-1.43-.22-2.4-1.31-2.92-.17-4-4.33-6.39-7.68-7.59l-.45-.61.2-.24c2.33.15,1.63-.3,2.45-1.52Z"/>
  <path class="cls-94" d="M399.78,69.85c.68.02,1.38-.05,2.06,0,1.85-.17,4.25.23,5.87.88,4.53.77,9,1.98,13.22,3.82.63.14,1.32.43,2.06.88,4.12,2.78,6.85,3.58,7.64,9.1.27.41.23,1.32,0,1.76l-1.84,7.7c-3.18,8.75-8.53,16.2-15.49,22.24l-.53-.35c.38-1.92.39-3.87.04-5.86l.49-.84.28-1.02c5.69-4.26,16.27-18.92,11.35-25.85-.69-.49-1.04-1.02-1.05-1.61l-.13-.65c1.91-1.59-2.59-3.3-3.86-3.7-6.97-2.23-14.5-4.53-21.82-3.61-1.48.17-3.49-1.54-3.56-2.9,1.77-.24,3.53-.24,5.29,0Z"/>
  <path class="cls-64" d="M180.41,209.59c1.61.07,1.05.09,2.01.55,2.21,1.06,5.33,3.05,6.29,5.39.29.69.09,1.58.28,1.92.11.2,1,.31,1.28,1.22.21.68,0,1.37.15,1.91.27.99,1.03,2.23,1.09,3.32.06,1.18-.8,4.08-1.56,5.05-.73.92-1.9,1.26-2.19,2.65,2.43.4,5.05-.8,7.34,0-5.88.74-13.45.45-19.09-1.47,1.06-.24,4.98-2.43,4.7-3.66-.08-.35-1.36-.42-.88-1.03.14-.18,1.94-.12,2.06-1.34.11-1.11-1.01-1.56-1.12-2.09-.22-1.04,1.09-1.07,1.55-1.58.9-.99-.27-2.81-1.02-3.66l1.17-.14c.18-1.57-1.57-1.94-2.35-3.08-.15-.36,1.06.23.87-.57-.03-.12-.82-1.92-.9-2.04-.51-.75-1.52-.42-1.44-1.35.58-.02,1.18-.03,1.76,0Z"/>
  <path class="cls-100" d="M231.5,209l.03-.69c.69-.4,1.11-.67,1.1-1.51-.05-4.15-7.62-10.47-10.84-12.82-2.33-2.01-2.59-4.21,1.23-3.28,1.18.48,2.15.61,2.89.39,2.06,2.44,1.67,2.18,4.26,4.11,1.23.91,1.76,2.78,3.9,2.85l6.81,1.26c.28,1.94,1.18,3.86,1.17,5.87-1.84-1.44-3.75-2.8-5.87-3.82-.27.29,3.19,3.96,2.58,5.96-.37,1.24-6.38,6.11-7.87,6.96,1.39-1.97.36-2.33.28-3.98-.03-.6.31-1.09.31-1.3Z"/>
  <path class="cls-20" d="M413.29,109.18c.23,1.8.43,3.58.31,5.45l-.31,1.6c-.38.33-.94.62-1.11,1.09-.63,1.76-.66,5.22-1.24,7.42-1.12-1.73-1.95-3.65-3.23-5.28,2.79-6.95,3.02-14.37.86-21.56-.45-1.5-1.24-2.87-1.74-4.27.85-.11,1.59.34,2.2,1.36,2.07,2.39,4.98,10.02,4.71,13.1-.04.44-.19.73-.45,1.1Z"/>
  <path class="cls-88" d="M430.61,84.52l.29-.15v2.94c-.47.5-.29-.87-.29-1.03-.02-.56.07-1.24,0-1.76Z"/>
  <path class="cls-88" d="M422.98,75.42c-.77-.1-1.37-.58-2.06-.88l.29-.29c.57.39,1.18.78,1.76,1.17Z"/>
  <path class="cls-5" d="M341.04,137.66c.4.75-.56,1.13-2.88,1.16.27,1.79,1.32,3.31,3.15,4.57.15,1.52.7,2.99,1.65,4.42,0,.96-.14,1.9-.4,2.85,1.06,2.82,1.93,5.68-.84,7.82-.19,1.87-.76,3.49-1.7,4.87-1.16.05-3.77,4.05-3.62,4.31.79,1.37,5.21,0,6.08-1.09,1.85-.52,2.95-.98,4.06-2.7.91-.29,1.63-.84,2.15-1.62,2.09-.96,3.29-2.39,1.53-4.37.26-6.08-2.37-11.91-6.44-16.54-.57-1.4-1.27-2.49-2.11-3.26l-.04-.41c1.96-.22,4.55-.54,6.46-.59,7-.18,15.72,4.41,21.12,8.69,1.56,1.24,1.18,1.61,1.93,2.74.89,1.34,2.78,2.1,3.07,4,.15,1.02-.41,2.58.6,3.06l.15-.88c2.78,3.58,3.6,8.11,1.37,12.23s-10.1,5.95-14.28,5.37c-.49-.07-.83-.56-1.48-.6-1.11-.07-2.92.64-4.11.64-1.02,0-2.18-.48-3.24-.61-5.7-.68-14.86-1.18-20.11-3.53-.56.36-1.17.11-1.84-.76l-5.85-2.25c-.84-.35-1.25-1.02-.57-1.74,5.44-1.05,9.02-6.23,10.3-11.34,1.08-4.29-1.75-11.4-4.83-14.52l.44-.52c3.45.51,6.77.73,10.28.59Z"/>
  <path class="cls-45" d="M281.43,95.68c.38,2.25-.8,4.19-2.47,5.64.28.22.42.5.42.82-.94.39-2.26.45-2.91-.48-.23-.32-.21-.84-.32-.99-.71-1.82-3.45-5.96-1.15-1.62-.28.56-.28,1.2-.03,1.92-.27,3.18-.61,5.76-3.91,7.1-1.94.79-3.47.75-4.9-.94.28-1.87-.36-3.06-1.56-4.39-3.47-3.85.11,2.9.78,3.99l-.1.69c.56,2.14-2.43,4.11-4.28,4.38-.82.12-1.66-.04-2.47.03-1.28-.36-1.77-.16-1.47.59,1.32.7,3.19,1.25,4.7,1.18.19.18-1.44,4.27-1.62,4.99-.16.65-.73,2.92-.73,3.38v6.17c0,.52.45,2.94.59,3.67.05.99-.32,1.35-.96.3-1.01-5-.64-9.85.32-14.66-2.54.23-4.89.43-7.4-.27.07-.3.04-.53-.19-.64-1.3,1.08-3.22-.83-1.79-2.41-.32-1.15.06-1.84.91-2.6-.45-.72-.55-1.3-.3-1.74-4.37-5.32-.84-13,4.11-16.73,6.79-6.7,24.72-9.41,26.72,2.64Z"/>
  <path class="cls-66" d="M330.76,137.07c.33,1.25,1.61,1.78,2.28,2.86.84,1.37,3.05,8.15,3.03,9.61-.07,5.58-4.79,13.3-10.44,14.25-.38.06-.92.1-.44.57,1.93,1.21,4.4,1.57,6.39,2.56.35.17.93.98,1.54,1.26l-1.47,2.35c-5.82-2.69-13.55-6.87-17.32-12.19-1.57-2.21-1.28-2.66-1.77-5.13,1.51-2.36,1.41-2.46-.29-.29-.08.22-.14,1.07-.59.74-2.44-3.21-2.91-7.74.15-10.72.94-.91,3.88-2.78,5.14-2.94.53-.42.63-.81.29-1.17-.75.02-1.33.24-2.06.29.36-1.61,1.7-2.38,3.16-2.85,4.29-1.38,8.17.17,12.4.8Z"/>
  <path class="cls-41" d="M279.08,114.47c.25.97-.32,1.68-1.72,2.12,1.27.62,1.93,1.53,2.26,2.91.38-.89.99-2.22,2.11-1.51l.34.53c-.65.61-2.23,5.36-2.08,5.63.22.39,2.34-.64,2.32-1.39-.04-1.62,1.24-4.07,2.64-2.42l.27-.05c1.38,2.81,3.95,4.29,6.54,5.59l-.05.63c.42.5.11,1.27-.29,1.76.02,1.7-2.52.35-3.47-.2l-3.64-2.33c-1.73-.95-2.51-.65-3.27,1.07-.32,1.72-.78,2.31-1.36,1.75-.53-.15.19,1.69.43,2.21,1.47,3.09,4.31,4.95,7.48,5.78-.78,5.79,5.51,7.46,7.94,2.18.4-.41.95-.55,1.52-.47,3.23,1.63,6.73-.08,9.49-1.95l.75.19c1.59-2.6,3.46-3.34,5.62-2.23,1.06-.15,1.63.05,1.69.6-.97.77-1.64,1.61-2.02,2.51-1.11,3.52-1.77,2.09-3.83,3.95-.78.71-1.38,1.85-1.75,2.8-8.55,3.13-18.92,3.59-26.72-1.76-1.82-.87-4.81-2.65-4.85-4.88-3.29-4.9-5.93-10.58-4.73-16.74.37-1.89,1.08-4.85,2.82-5.68,1.34-1.42,2.66-2.26,4.11-.38.54-.7,1.33-1.35,1.47-.2Z"/>
  <path class="cls-25" d="M305.51,98.91c.47.62,0,.86-.7.86l-3.38-.76c-1.07-.36-1.94.03-2.63,1.15-2.55.09-4.81.36-6.79.81l-.76.76c-7.24,1.75-13.61,6.29-18.2,12.09l-1,.36c-3.01,4.91-3.94,11.44-1.76,16.73.1-.11.2-.21.32-.26.39-.18,4.13,6.32,4.56,7.18l-.18.71c1.42,3.09,3.34,4.91,6.41,6.7,7.51,4.37,16.34,4.07,24.58,2.58,0,1.24.14,2.25.43,3.05.33.01.23,1.02.29,1.17-.15.18-.3.35-.48.49-1.38,1.09-9.23,1.13-11.43,1.02-10.83-.53-19.97-4.41-26.92-12.82-.76-.92-2.22-3.2-1.99-4.25-.23-.51.05-.81.84-.9-2.15-6.82-3.63-14.7.76-21.08-1.19-.12-1.53-.52-1.01-1.21.33-.46.63-1.1,1.02-1.48,1.42-1.35,4.34-.68,6.6-2.21,1.69-1.15,2.68-4.22,2.94-4.4.41-.27,1.44-.08,2.08-.27,2.3-.65,4.23-2.23,4.98-4.57.11-.2.23-.4.38-.57,1.21-1.37,8.55-2.47,10.72-2.61,2.07-.13,8.57-.04,9.89,1.18.17.15.31.34.44.53Z"/>
  <path class="cls-99" d="M341.63,137.66c1.83.4,1.21.99,1.65,1.77,1.6,2.77,3.45,4.8,5.08,7.29.83,1.27,2.36,7.68,2.6,9.36.08.55-.35,1.07-.2,1.63s.9.54.86,1.81c-.08,2.82-1.86,2.07-3.08,3.72-.17.23-.12.76-.2.84-.06.06-.57-.22-1.02-.02-.97.41-1.33,1.72-2.21,2.21-.59.33-1.65.47-2.4.83-1.23.61-2.24,1.7-3.89,1.71-.6,0-3.56-.53-3.38-1.34,1.2-.74,1.35-2,2.05-2.95.83-1.11,2.19-1.16,2.77-2.51.44-1.04.53-2.91.91-3.79.22-.51,1.18-.91,1.47-1.75,1.06-3.06-.65-4.08-.71-6.02-.02-.7.62-1.55.5-2.3-.07-.42-1.3-2.46-1.55-3.16-.15-.4.15-.79,0-1.15-.3-.7-2.39-2.04-2.81-2.78s-.14-1.38-.42-1.93c-.25-.51-1.03-.36-1.03-.87,1.3-.11,2.64-.18,3.94-.32.24-.03.41-.27.47-.27.19-.02.4.02.59,0Z"/>
  <path class="cls-71" d="M218.58,119.17c2.08,1.04,1.91,2.34.88,4.11-.09.57-2.45,2.7-2.95,3.38-.75,1-1.67,2.72-2.33,3.96-.97,1.62-2.1,1.42-3.39-.6-.16-.12-3.12-1.52-3.3-1.49-.12.03-1.31,1.15-1.25,1.22,2.55.11,6.86,1.97,5.88,4.98-.59,1.74-1.2,4.8-1.43,6.64-.43,3.47-.28,6.94.26,10.39l-.69-.19c-1-3-2.44-5.81-3.89-8.59-.98.55-1.77.02-2.37-1.6-.44-.68-1.02-.79-1.74-.32-.97-.67-1.93-.49-2.87.53-1.19.03-1.48.06-2.26,1-1.28,1.54-2.18,3.4-3.02,5.2-.53.54-.65.56-1.08-.13,1.32-3.07,2.85-6.92,4.7-9.69,4.17-6.24,12.37-14.01,18.79-17.91.67-.4,1.51-.58,2.06-.88Z"/>
  <path class="cls-72" d="M265.57,136.19c.38-.43.54-.26.29.29,1,1.19,1.78,3.14,2.95,4.54,9.08,10.95,24.43,13.76,37.87,11.02.23.59,2.22,3.93,2.06,4.11-4.13,1.25-8.03,1.56-12.33,1.47-3.54-.41-7.06-.9-10.57-1.47-6.41-1.81-13.45-6.09-17.45-11.47-2.02-2.72-4.06-6.18-3.99-9.66.49.04.43.8.75,1.2.23.3.41-.05.43-.03Z"/>
  <path class="cls-17" d="M312.26,117.4l.69-.13c1.51,1.58,3.68,2.72,5.34.68l.72.04c1.45,1.05,1.49,4.19,1.45,6-.1,3.93-1.91,8.74-5.16,10.18l.19.26c-.89.5-2.22,2.12-2.94,2.94,0-.03-.35-.19-.17-.56.31-.64,1.63-1.3,1.93-2.08-2.42.78-3.22-1.64-5.43.29-.69.61-.71.81-1.62,1.47l-.05-.86c2.92-3.57,2.27-9.02-1.72-11.47-1.29.22-3.4-1.12-3.82-2.35-.79-.3.52-4.39.74-4.58.68-.58,1.15-.35,1.72.23,1.76,3.97,5.76,3.83,7.47.09l.64-.15Z"/>
  <path class="cls-30" d="M321.07,118.87c1.43,1.83,1.03,5.38.61,7.69s-1.26,5.71-3.25,6.98c-.83.19-2.24.49-2.94.88-.93.08-.6-.18-.14-.58,4.74-4.08,5.38-10.12,3.66-15.86l-.65-.13c-.65-2.65-1.83-4.93-3.54-6.85l.08-.65c-3.46-3.14-6.57-5.69-11.41-6.87-10.24-2.5-22.42,1.91-28.6,10.46l-1.4,1.11c-3.38,5.78-3.16,11.08-.55,17.13.59,1.36,2.94,4.63,3.14,5.41.11.46-.2.93-.08,1.26.22.62,3.49,3.05,4.25,3.51.39.39.22.52-.29.29-2.07.19-4.12-2.27-4.99-4.11-1.32-1.48-4.25-7.62-4.7-7.63-2.18-5.36-1.24-11.81,1.76-16.73,4.54-6.25,12.23-11.76,19.97-13.21,11.52-3.12,24.55,2.69,28.72,14.2.05,1.21.17,2.45.36,3.71Z"/>
  <path class="cls-59" d="M273.5,73.96c1.32-2.97,3.44-4.8,6.74-5.06.99-1.66,2.19-2.22,3.58-1.69,4.16-.54,8.05-.1,11.67,1.32l2.64.25c.86.68.6,1.63-.55,1.37-.03.24-.15.42-.37.5-.08-.26-4.41-.98-4.14-.77,1.08.82,2.2,1.55,3.35,2.26v.66c.05,1.63-2.02,1.45-2.81.35-2.27.36-4.58.35-6.94-.04l-2.96,1.87c-2.52.13-4.87,1.33-6.87,2.78-.15,1.3-1.13,2.1-2.95,2.4-.75,1.12-1.56,2.19-2.44,3.21-.24.1-.45.43-.88.29-.43-1.74,1.24-7.2,2.19-8.83.28-.48.61-.65.75-.86Z"/>
  <path class="cls-9" d="M251.77,116.52c1.11.26,3.15.59,4.25.61.94.01,3.35-.71,3.85-.04.34.47-.68,4.19-.75,5.16-.27,3.41,0,6.93.58,10.27l.29-.73c.72,3.84,2.34,8.14,4.41,11.45l-.88,1.47c-.02-.05-.64-.4-.87-.73-3.38-4.94-5.89-10.56-5.88-16.58-1.13-.55-7.62.55-7.91.28-.03-.03-.26-.7-.25-.73.03-.32,4.96-2.6,5.22-3.56.08-.31-.24-.33-.28-.39-.84-.27-1.43-.66-1.76-1.17-2.78-.61-6.29-1.51-8.52-3.52.58.1,1.19.16,1.76.29l.91-.4c1.86.38,3.76.66,5.65.52-.43-.2-.44-.5-.39-1-.16-.46.04-.85.59-1.17Z"/>
  <path class="cls-73" d="M325.77,113.59c-.08.81-2.02,1.81-2.64,1.17l-.75-.4c-2.82-6.91-9.14-12.79-16.37-14.76l-.5-.69c-7.2-2.12-14.54-1.26-21.44,1.47.17-.53.14-2.29.34-2.59s5.79-1.94,6.59-2.07c14.05-2.34,29.32,4.34,34.76,17.87Z"/>
  <path class="cls-43" d="M298.75,61.04c.46.02.85.22,1.17.59l-.67.59c-3.75-.22-7.93.76-10.63,2.64.66-.84,3.84-.99,4.41,0,.05-.3.22-.48.51-.54,1.95.96,3.94,1.48,5.97,1.57,1,.12,3.15.68,2.48,1.9l-.12.38c-1.73.45-2.41.69-2.52,2.55-.43.72-1.88.27-1.76-.59,1.83-1.21-.96-.8-2.07-1.01-1.05-.2-1.68-.9-2.49-1.03-2.51-.41-6.55-.52-9.09-.31-.45.04-.93-.35-1.41-.25-.72.16-1.55,1.56-1.99,1.85-.24.16-2.7.59-3.28.82-1.79.71-2.7,2.18-3.75,3.74.07-.54.32-1.01.59-1.47.73-1.69,1.81-3.16,3.23-4.4.96-.86,1.88-1.9,2.94-2.64,5.53-3.86,11.86-5.52,18.5-4.4Z"/>
  <path class="cls-74" d="M325.77,113.59c2.18,5.41,3.22,11.86,2.06,17.61-.63.09-.9-.13-.9-.75.35-1.44.82-9.03-.36-9.5.4,3.92-.05,7.68-1.34,11.28.96-.02,1.62,1.07.55,1.03-2.92-.34-4.46-.38-7.34.29,2.7-4.66,3.55-9.35,2.64-14.68-.03-1.15-.25-2.33-.66-3.53.09-.33,2.44-1.35,2.71-.58.87-.42,1.72-1,2.64-1.17Z"/>
  <path class="cls-24" d="M279.96,142.65c7.9,4.21,17.09,5.03,25.54,1.89l1.19.16c-.63,2.13-.58,3.99-.29,6.17-.02,0,.04.34-.29.29l-.3-2.94c-10.06,2.54-22.61,1.38-29.92-6.64l-.92-3.05c1.37,1.53,3.24,3.05,4.99,4.11Z"/>
  <path class="cls-35" d="M246.77,101.55c.93-.57,1.53.27,1.8,2.51.07,2.17.6,4.05,2.02,5.71,1.85,2.35.28,2.09-.14,3.21-.12.31.18.82.09,1.26-.28,1.35-1.95,1.54,1.22,2.28.56.61-.13.72-.59,1.17l-.93.06c-2.08-1.01-6.22-5.28-6.7-7.69.44-3.74,1.24-5.37,3.23-8.51Z"/>
  <path class="cls-97" d="M266.45,113.29c0,.95,2.06.23,1.76,1.02-.29.75-1.28,1.94-1.69,3.01-1.48,3.88-1.64,8.67-.81,12.71.24,1.19,2,5.14,1.49,5.88-.21.31-.99.36-1.34.57-.12-.14-.24-.23-.29-.29-.57-1.45-1.27-2.82-1.68-4.34-1.58-5.91-1.08-13.5,2.56-18.56Z"/>
  <path class="cls-12" d="M235.32,113c-.71.61-1.77.71-2.57,1.09-2.58,1.22-6.07,2.94-8.37,4.77-1.66,1.32-3,3.43-4.92,4.41,0-.02-.37,0-.27-.42.36-1.49,1.15-2.58-.91-2.82l.29-.88c.71-.39,1.26-.78,2.06-1.17.09-.95,3.74-2.88,4.53-2.96.27-.03.53.15.76.32,2.83-1.09,6.41-1.82,9.4-2.35Z"/>
  <path class="cls-89" d="M243.54,110.07l2.64,3.38c1.77,1.6,3.07,2.95,5,4.25.57.38,1.35.93,1.76,1.47-2.68.39-5.31.01-7.93-.58-2.06-2.8-1.84-5.3-1.47-8.51Z"/>
  <path class="cls-11" d="M327.83,131.2c-.15.74-.45,1.56-.62,2.31-.53.35-1.19-.23-1.44-.26l.16-.31-1.63-.28c2.21-3.91,1.77-8.6,1.47-12.91.52.38,1.47.76,1.69,1.39.52,1.44.45,5.34.37,6.99-.05.98-.74,2.24-.01,3.07Z"/>
  <path class="cls-19" d="M254.7,93.04c-3.16,3.12-6.13,8.43-5.5,12.99.21,1.55,1.03,2.36,1.39,3.75-.37-.47-1.18-.75-1.54-1.55-.69-1.55-.99-4.49-1.65-6.28-.26-.69-.3-.06-.63-.39,2.02-3.2,4.68-6.51,7.93-8.51Z"/>
  <path class="cls-77" d="M280.25,142.36c7.18,4.33,14.63,4.42,22.61,2.5,1.12-.27,2.19-.93,3.3-1.14.63-.12.4-.26.81.4-.08.2-.24.39-.29.59-8.42,3.52-18.92,2.66-26.72-2.06l.29-.29Z"/>
  <path class="cls-34" d="M225.92,115.35c-1.63.63-3.66,1.83-5.29,2.64l-2.93-1.61c2.32-1.68,6.37-4.97,8.22-1.03Z"/>
  <path class="cls-91" d="M265.28,107.42c-.03-.1-.52-.36-.67-.68-.44-.92-2.39-4.84-2.13-5.48.05-.12.51-.55.6-.55,1.27.84,2.97,2.38,3.45,3.85.17.51.43,2.28.21,2.56-.07.09-.43-.05-.58,0-.29.1-.62.09-.88.29Z"/>
  <path class="cls-1" d="M312.26,152.93c.7-1.9,1.36-2.78,3.32-3.58,1.02-.41,4.5-.98,5.19-.23.43.46-.09.5-.41.62-2.81,1-5.68.68-7.82,3.49-.03-.14-.16-.25-.29-.29Z"/>
  <path class="cls-44" d="M279.37,102.14l-1.76-.44c.96-.77,1.9-1.66,2.59-2.69.5-.73,1.35-2.44,1.22-3.33.09.51.34.74.31,1.61-.04,1.56-.79,4.19-2.37,4.84Z"/>
  <path class="cls-61" d="M276.14,100.67c-.28-.4-.72-.97-1.17-1.17-.04.48.04.99,0,1.47-.46-.69-.38-1.54-.73-2.35-.48-1.1-1.67-1.94-1.61-3.23.31-.34,2.25,1.74,2.48,2.07.51.73,1.36,2.31,1.05,3.21Z"/>
  <path class="cls-34" d="M245.01,103.02c.38,1.75-3.16,5.45-2.93,2.22.09-1.22,1.7-2.46,2.93-2.22Z"/>
  <path class="cls-34" d="M244.72,100.67c-.22-1.97,1.43-3.61,3.1-2.06-.31,1.82-1.33,2.34-3.1,2.06Z"/>
  <path class="cls-15" d="M317.26,138.84c1.55-.03,3.65.22,4.7,1.46-1.68.17-3.31-.5-4.99-.29l.29-1.17Z"/>
  <path class="cls-37" d="M296.41,157.62c-3.71-.08-7.01-.46-10.57-1.47.28-.56.99-.19,1.42-.1,1.57.32,3.33.8,4.9.98,1.37.15,3.21-.47,4.25.59Z"/>
  <path class="cls-34" d="M242.66,115.94c-.79.76-1.99-2.27-1.49-3.03,1.2-1.81,1.9,2.04,1.49,3.03Z"/>
  <path class="cls-84" d="M258.52,111.83c-.58.04-1.12.04-1.47.59-.48-.25-3.71-2.72-3.23-3.23,1.3,1.41,3.18,1.58,4.7,2.64Z"/>
  <path class="cls-34" d="M226.99,111.87c2.25-.61,3.77,1.75,1.5,1.36-.39-.07-2.82-1.01-1.5-1.36Z"/>
  <path class="cls-103" d="M274.09,72.49l.86-2.74c.94-.34,1.63-1,2.37-1.66-.8,1.64-2.31,2.81-3.23,4.4Z"/>
  <path class="cls-34" d="M233.85,110.36c.58.62-1.92,1.32-2.35.43-.37-.77,1.96-.84,2.35-.43Z"/>
  <path class="cls-102" d="M189.8,149.99c1.53-.7,3.49.78,4.86,1.85,3.81,3,6.77,8.24,8.65,12.53.88-.5,2.02,2.75,2.19,3.59l-.43.52.76.33c2.82,5.64,3.67,10.93,3.8,16.97l-.45.61.74.39c.73,1.7,1.55,3.36,2.48,4.98l-.28.8c-2.62-.11-9.43.34-11.75,1.32-.94.4-1.17,1.29-2.2,1.35-4.75.28-13.61-5.91-17.05-9.12-5.81-5.42-14.41-17.58-12.34-25.86.81-3.25,3.78-5.58,7.1-5.84.76-.06,2.1.37,2.45.14.33-.21,1.14-1.69,1.58-2.11,2.76-2.64,6.14-3.39,9.88-2.45Z"/>
  <path class="cls-85" d="M200.96,201.37c.48.72-.27-.12-.29.58l3.81.59c.11.88-2.37-.63-1.46.43.79.66,3.51,1.37,4.05,1.96.05.06-.15.5-.02.75.55,1.06,3.29,2.09,4.15,2.77.03.02-.14.44-.02.74.44,1.12,1,2.19,1.38,3.33l.59-.59c.41.88.03,2.79.27,3.54s.91.64,1.15,1.49c.47,1.64.38,2.84-.11,4.37-.61-.5-.72-.14-1.18.13-1.33.79-2.65,1.94-4.01,2.75-3.48,2.07-7.31,4.05-11.25,5.04.73-1.09,1.94-2.06,1.76-3.52-.4.76-1.49-1.04-1.49-1.32,0-.71.86-.57.92-.93.02-.1-.06-1.84-.08-1.94-.14-.66-2.6-6.77-2.94-7.34-.59-.98-1.96-1.94-2.15-2.27-.33-.54.76-1.12-1.16-2.64s-3.56-1.97-5.73-2.79c-.67-.25-.93-.97-1.75-.6-.27.12-1.15,1.15-1.48,1.48-.13.14-.76,1.03-.88.44,3.49-5.23,12.06-6.83,17.91-6.46Z"/>
  <path class="cls-92" d="M217.7,166.73l-.58,4.85c-.21,9.35,3.22,12.92,8.81,19.52l.29,1.17c-1.55-.56-3.18-1.1-4.85-1.17-.32-.01-.9-.21-.72.43.49,1.77,5.16,4.8,6.6,6.03,1.57,1.34,4.91,5.69,5.58,7.63s.69,2.76-1.32,3.81c0-.91-2.69-6.76-3.31-7.26-.41-.33-1.12-.24-1.32-.44-.16-.16-.19-1.02-.65-1.56-.31-.37-2.71-1.93-3.24-2.19.7-.25-.07-.79-.29-1.03-1.84-2.02-4.97-3.04-7.64-3.37-.32-1.26,1.33-.89,2.2-.6-1.92-2.73-4.64-5.52-8.08-6.15-.79-2.83-.23-3.82-.39-6.27-.22-3.41-2.45-8.37-3.72-11.63,2.12-1.49,4.33-2.05,6.62-1.68-.27-1.99.43-3.9,2.12-5.71l.65-.24c1.05,2.26,1.69,3.74,3.23,5.87Z"/>
  <path class="cls-52" d="M193.03,147.64c.7.15.62-.35.83-.77.82-1.61,2.42-4.83,4.01-5.72.45-.25.83.06,1.31-.12.52-.19.99-.96,1.67-1.04.83-.1,1.21.49,1.45.49.65-.01.63-1.03,2.06.39.46.46.95,1.7,1.02,1.77.64.54.45-1.08,1.18-.45.41.36.59,1.25.92,1.74,1.16,1.73,2.74,5.66,3.48,7.81,1.21,3.53,1.14,5.12,2.93,8.15.18.31.45.64.59.95-.08,1.2-2.13,3.02-2.31,3.74s.76,2.15-.33,2.88c-.32.21-.46-.35-.73-.35-.13,0-1.74.21-2.27.25-1.65.14-1.8,1.61-3.76,1.11-.23-.58-1.55-4.04-1.76-4.11-.11-.13-.21-.26-.27-.4-.15-.36-.26-.78-.36-1.16-1.62-6.17-2.69-7.96-7.5-12.27-1.85-.77-2.56-1.64-2.15-2.6v-.29Z"/>
  <path class="cls-27" d="M189.8,149.99c1.09.15.35-1.28.73-2.06.18-.38,1.89-1.45,2.2-1.17l-.29,1.47c.08.13.47-.3.58-.29.34,0,.2.64.5.9.53.45,1.51.82,2.12,1.33,4.38,3.65,7.66,8.27,7.66,14.21-.02,0,.05.24-.15.29-3.09-5.21-6.79-13.02-13.36-14.67Z"/>
  <path class="cls-53" d="M209.19,186.4c1.02-.84,2.59.2,3.5.76,2.4,1.47,4.65,4.44,6.48,6.58-1.07-.17-2.06-.73-3.14-.87-.6-.08-.92.29-.97.29-.78-.09-2.22-.56-2.94-.59-.97-2.22-2.27-3.78-2.94-6.17Z"/>
  <path class="cls-27" d="M192.45,142.94c-.76-1.65,2.95-3.58,3.23-2.19.25,1.2-1.93,2.85-3.23,2.19Z"/>
  <path class="cls-13" d="M390.09,65.44c.03-.27.13-.25.29,0,.71.72,3.42,3.95,4.11,4.11.26.08.25.18,0,.29.86.52,1.9,2.14,2.86,2.3.72.13,2.62-.31,3.76-.26,5.72.25,12.54,1.56,17.91,3.53,2,.73,8.23,2.75,4.84,5.29l-.81.25c-5.83-2.13-13.26-1.75-18.91.58-.41.71-.89,1.12-1.43,1.22-.12-.11-.84-.64-.88-.59v1.18c-.23,0-.46.02-.69-.05-.77-.25-4.33-3.22-5.44-3.96-.74-.49-1.62-.63-2.37-1.15s-1.38-1.76-1.8-2.04c-.19-.13-2.07-.08-2.32-.46-.79-1.23.96-.53,1.15-1.15-2.23.44-1.86-1.56-2.06-1.77-.37-.39-2.66.86-3.34.86-.48,0-1.1-.39-1.66-.28l.3-.58c-2.7-.93-4.3,1.02-6.91.9-.68-.03-4.76-.99-4.84-1.35-.09-.4.56-1.18.89-1.45.49-.4,6.24-3.8,6.66-3.91,3.41-.96,7.08-1.33,10.66-1.53Z"/>
  <path class="cls-52" d="M357.78,49c.55-.69,1-.57,1.17.29,1.5.34,3.59.76,4.99,1.17.41-.83,2.47.01,2.35.88,1.46.49,2.98,1.16,4.41,1.76-2.02.88-4.52,1.23-6.55,2.12-.86.38-1.21,1.02-1.69,1.25-.55.26-1.45.15-1.87.43-.25.17-.09.65-.37.92-.47.46-3.76,1.99-4.65,2.63-1.42,1.03-2.6,2.28-3.82,3.52l-.29-.88c-1.41,1.87-3.51,4.22-6.02,4.11v-5.72c0-.16,1.16-1.95,1.33-2.49.36-1.2.57-3.06,1.19-4.39s2.45-2.59,3.36-3.69l-.88-.29c.99-1.14,2.59-1.4,3.82-2.21,1.11.19,2.47.36,3.52.59Z"/>
  <path class="cls-78" d="M344.57,25.52c.64-.56.91-.15.59.59,2.58,2.24,4.84,6.09,6.46,9.1.83-.33,1.41.8.88,1.47,1.57,3.18,2.66,6.62,3.82,9.98-2.36.02-4.78-.2-7.05.59-.13.24-.88.02-.93-.14-.34-1.17,3.78-1.59,4.65-1.41-1.7-7.46-5.75-15.48-13.12-18.7-.46.5-1.35.6-2.68.31-6.19.64-17.55,14.05-20.83,19.49l-.87.75c-.08,1.02-2.84,1.64-3.82,1.47l-2.93,1.17c-.16-.2.69-1.73.88-2.05-.51-.73.03-1.38.88-1.17,3.42-5.49,9.64-12.95,14.68-17.03,1.11-.9,3.14-2.14,4.41-2.94-.3-.84,1.03-1.71,1.76-1.17,4.57-2.5,8.7-3.66,13.22-.29Z"/>
  <path class="cls-82" d="M339.87,26.98s.26-.33.65-.25c.54.12,1.44.7,1.97,1.01,6.25,3.59,9.68,11.97,11.47,18.62-1.64-.2-3.9-.17-5.28.74l.59.15v.29c-1.32-.17-3.19-.48-4.41-.59-.95-.21-1.59-.59-.88-1.47l-.61-1.36c-.82-5.54-2.04-11-3.65-16.35l.15-.79Z"/>
  <path class="cls-87" d="M386.27,62.51c.26.56-1.22,1.08-1.4,1.1-.79.12-2.26-.45-3.15-.46-1.02,0-3.67.29-4.62.6-3.29,1.07-6.12,2.02-9.36,3.27-2.01.78-3.32,1.42-5.54.75-.05-.41-.06-.83.06-1.24.26-.88,3.38-4.35,4.23-4.87,1.31-.8,2.12-.41,3.25-.86.89-.35,2.29-1.81,3.54-2.33,1.79-.74,3.78-.8,5.64-1.26,2.82,1.68,4.8,3.33,7.34,5.28Z"/>
  <path class="cls-27" d="M343.98,45.48c.23.32.41,1.12.88,1.47-1.04-.09-2.18.07-3.23,0-10.46-.67-18.7.89-28.49,4.4-.57-.55-1.29.11-2.13-.05-2.22-.42-.44-1.87.95-2.03-.04-.12-.29-.24-.29-.27.09-.51,3.1-1.23,3.82-1.47.18-.22.38-.43.59-.61,1.51-1.24,7.84-2.28,10.16-2.63,4.3-.64,8.63-.78,12.95-.46l-2.67-3.86c-.02-.58.35-.83.93-.84.48-.1,6.97,4.81,6.52,6.35Z"/>
  <path class="cls-22" d="M418.57,72.19c-1.23.69-1.64-.08-2.52-.26-1.21-.25-5.94-1.03-6.58-1.64-.36-.35-.33-.56-.29-1.03.16-.16,3.99.22,4.53.32.96.18,3.87,1.1,4.44,1.73.26.29.54.41.43.89Z"/>
  <path class="cls-6" d="M301.69,61.63c2.23.77,4.74,2.35,5.87,4.4.72.86,1.87,2.97-.11,2.07-2.33-1.96-4.85-3.62-7.57-4.97-.47-.95.02-1.33.93-1.51.02-.22.22-.32.59-.29.11.03.21.26.29.29Z"/>
  <path class="cls-27" d="M331.35,25.81c-.47.26-1.21.82-1.76,1.17-.63-.78-3.58.37-3.01-1.09.3-.76,5.17-3.71,5.89-1.71l-1.12,1.62Z"/>
  <path class="cls-27" d="M356.56,39.66c.51.3,2.53,4.93,1.32,5.24-1.68.42-2.42-1.19-2.68-2.58-.17-.92.26-3.31,1.36-2.66Z"/>
  <path class="cls-27" d="M352.5,36.67c-.2-.41-.61-.97-.88-1.47.54-.62-.54-2.41.77-2.63,1.41-.24,3.43,5.27,1.47,4.95-.4-.07-.95-1.39-1.36-.86Z"/>
  <path class="cls-27" d="M325.19,29.92c-.61.62-3.18.54-4.11.88.62-1.4,2.54-3.12,3.99-3.49.54-.14.63.79.61,1.06-.01.22-.44,1.5-.5,1.56Z"/>
  <path class="cls-22" d="M380.97,55.48c1.54,2.34-6.12.59-4.66-1.46.46-.65,4.53,1.25,4.66,1.46Z"/>
  <path class="cls-27" d="M310.5,46.95c-.29.46-.74.94-.88,1.17-.37-.36-.83.14-1.46-.14-1.28-.57-.85-2.16-.02-2.95,1.4-1.35,1.82.98,2.36,1.92Z"/>
  <path class="cls-27" d="M358.96,49.3c-.39-.09-.8-.21-1.17-.29-1.47-2.93,2.01-2.75,3.52-1.03l-2.34,1.32Z"/>
  <path class="cls-27" d="M345.15,26.1c-.22-.19-.52-.53-.59-.59-.38-3.47,2.55-2.15,3.23.14-.69,1.05-1.87-.08-2.64.45Z"/>
  <path class="cls-27" d="M307.62,51.3c.23.19,1.14-.09,1.41.5-1.28,2.16-1.62-.28-1.81-.4-.29-.19-1.5-.01-1.98-.36-.27-.92.47-2.11,1.44-1.6.77.41.77,1.73.93,1.87Z"/>
  <path class="cls-22" d="M389.5,64.85v-2.05c.83.18,2.59.89,2.8,1.73.31,1.28-1.1.86-1.92.91-.1,0-.2,0-.29,0-.33-.07-.42-.43-.59-.59Z"/>
  <path class="cls-27" d="M317.84,34.32c-.42-.4,2-3.7,2.8-2.05.59,1.22-1.65,2.49-2.8,2.05Z"/>
  <path class="cls-22" d="M384.87,59.35c1.17-1.13,4.17,1.42,1.47,1.94-1.24.24-2.19-1.24-1.47-1.94Z"/>
  <path class="cls-22" d="M384.19,58.66c-.4.58-2.52.23-2.77-.82-.46-1.9,3.81-.69,2.77.82Z"/>
  <path class="cls-27" d="M333.12,22c.38-.53,3.48-.52,3.81.73-.45,1.33-4.39.08-3.81-.73Z"/>
  <path class="cls-27" d="M366.3,51.35c-.76-.26-1.7-.69-2.35-.88.45-2.07,3.7-1.5,2.35.88Z"/>
  <path class="cls-27" d="M338.99,22c.24-.33,3.82-.57,3.81.14-.02,1.37-4.68,1.06-3.81-.14Z"/>
  <path class="cls-27" d="M349.2,27.34c.48.27.8,1.99.65,2.58-1.35.09-2.19-1.43-2.05-2.64.43.04,1.04-.14,1.41.06Z"/>
  <path class="cls-88" d="M402.71,69.55c1.27.05,2.68.4,3.97.6.55.08,1.19-.37,1.02.58-1.8-.31-4.11-.76-5.87-.88v-.29c.29-.7.59-.7.88,0Z"/>
  <path class="cls-27" d="M373.33,51.96c.77,1.24-2.07,1.19-2.62.12.29-.77,2.47-.36,2.62-.12Z"/>
  <path class="cls-27" d="M310.79,41.66c.64-.53,2.2,1.24,1.02,1.47-.7.14-1.67-.93-1.02-1.47Z"/>
  <path class="cls-22" d="M399.78,69.85c-1.75-.06-3.53.04-5.29,0v-.29c1.47.34,3.83-.5,5.29.29Z"/>
  <path class="cls-22" d="M402.71,69.55c-.29-.01-.59,0-.88,0l-.59-.88c1.04-.38,1.52-.39,1.47.88Z"/>
  <path class="cls-26" d="M301.4,61.33c-.11.2-.53.23-.59.29-.53.58-.82.58-.88,0l-.2-.24-1.27-.06.29-.29c.8.13,1.76.03,2.64.29Z"/>
  <path class="cls-22" d="M398.9,68.67c-.29.81-1.28.79-1.76.14l1.76-.14Z"/>
  <path class="cls-93" d="M411.52,49.3l3.38-2.64,1.9-3.23c.6,3.31,3.46,5.42,6.46,6.46l-2.32,1.34-2.67,2.47c-.51-.39-.41-.93.31-1.62l1.07-1.09c-2.46.62-4.96.32-7.09-1.11-.62.37-1.28.14-1.04-.59Z"/>
  <path class="cls-21" d="M411.52,49.3s.21.25.4.22c.39-.07.93-.58,1.06-.5.03.02-.09.41.37.67,2.07,1.16,4.15,1.29,6.4.65.49-.14,1.41-.78,1.6-.74.22.04.61.67.45.88-.04.06-.87.21-1.32.59-.77.64-1.92,1.71-2.2,2.64l-1.46,3.23c-.97-3.4-3.38-5.65-6.46-7.19.3-.15.87-.37,1.17-.44Z"/>
  <path class="cls-32" d="M255.59,54.58c-.22-.13-.84-.04-.88-.58,1.55-.34,2.61-1.59,3.68-2.64l1.9-3.24c.59,2.13,1.97,3.93,3.72,5.23.53.39,2.23.79,1.38,1.22-.54.28-1.55.53-2.16.88-.37-.48-.28-.94.26-1.38-2.14,1.3-5.13,1.74-7.34.36l-.56.14Z"/>
  <path class="cls-39" d="M255.59,54.58c-.12-1.35,1.58-.07,2.19.02.74.1,2.46.07,3.22-.04,1.49-.21,2.71-2.24,3.4.02-.69.02-.84.47-1.17.89-.71.88-1.32,1.93-2,2.85l-1.23,2.44c-.57-2.64-2.11-4.74-4.41-6.16Z"/>
  <path class="cls-33" d="M439.72,127.68c-.87.07-1.51.7-2.05,1.33l-2.05,3.67c-.39-1.35-1.34-3-2.34-3.97-.37-.36-2.22-1.15-1.77-1.6.1-.1,2.06-.64,2.35-1.33l2.06-3.37c.34,2.3,2.07,3.94,3.82,5.28Z"/>
  <path class="cls-63" d="M244.71,68.38c.34.32,1.22,3,2.35,3.38-1.31.68-1.7,2.07-2.63,3.08-.37-1.4-1.53-2.3-2.65-3.08-.2-.48.6-.56,1.04-1.01.34-.35.7-.68.98-1.08.23-.33.31-1.85.91-1.28Z"/>
  <path class="cls-42" d="M305.51,183.17l-1.17,1.17c.58.25,1.82.76,2.22,1.16.62.63.57,1.41,1.62,2.2.96.72,2.47,1,3.36,1.63s1.39,1.91,2.35,2.64c.69.53,1.57.7,2.2,1.32l-.88.15c.58,1.16,2.17,1.16,2.94,2.2.1.25-.54.04-.6.32-.26,1.12,2.27,3.75,3.25,4.38-.68-.05-.52.94-.29,1.32-4.2,1.51-8.15,3.98-12.64,4.58-1.27-1.4-.1-4.29-.41-5.47-.24-.94-1.49-1.2-1.61-1.65-.14-.5.49-1.06.13-1.85-.26-.58-1.46-1.16-1.84-2s-.28-2.88-.37-3c-.5-.67-.61.88-.88.58s-.93-2.39-1.05-2.92c-.25-1.09.66-1.12-.87-2.37-.28-.23-.78-.21-.94-.36-.33-.3-.61-1.62-1.69-2.57-1.82-1.58-4.67-4.01-6.79-5.25-.98-.57-2.48-.36-3.05-1.8,2.84,1,5.58,2.2,8.32,3.28,3.03,1.19,5.33,2.57,8.72,2.3Z"/>
  <path class="cls-57" d="M296.41,72.78c.59-.72,2.58-.05,2.64.88.94,1.22,1.92,2.43,2.93,3.63v.78c-2.67.41-5.26-.4-7.78-.58-5.91-.42-13.56-.25-18.74,2.98-1.45.91-2.48,2.24-4.02,2.88-.02-.79,1.56-3.22,2.06-3.66.62-.54,1.92-.52,2.34-.89s.23-1.08.56-1.5c.55-.7,4.25-2.37,5.24-2.68.57-.18,1.25,0,1.85-.2.2-.07,2.85-1.89,3.04-1.89,1.78,0,3.97.48,5.91.27.72-.08,1.09-.6,1.16-.6.18,0,1.01,2.23,2.79.58Z"/>
  <path class="cls-8" d="M301.99,67.79c.04-.24.2-.58.37-.54,2.88.7,6.09,1.58,7.85,4.06.35,1.19,1.21,2.23,1.4,3.15,1.23,5.93-5.84,6.52-9.62,3.6-1.11-.86-1.96-2.14-2.69-3.33-.12-.19-.76-1-.25-1.07l.42-.47c5.11,2.09,2.66-.53,0-1.75l-.13-.71c-1.33-1.8.89-3.09,2.64-2.94Z"/>
  <path class="cls-86" d="M340.23,81.95c-.45.51-.38,2.51-.28,3.23.41,2.99,3.2,5.19,6.21,4.9.51-.05,1.33-.57,1.65-.42,1.72.79-1.89,2.14-2.82,2.18-3.13.15-7.18-3.41-6.59-6.73-2.74,1.21-5.5,1.94-7.8-.58-1.67-1.82-.79-4.3.3-2.94.86,1.08.62,2.7,2.98,2.91,1.51.14,5.49-1.47,5.58-3.07.04-.67-2.66-4.5-.88-5.1,1.37-.46,6.98,1.94,7.31,3.46.41,1.86-4.72,1.08-5.67,2.15Z"/>
  <path class="cls-49" d="M299.93,61.63h.88c-.06.07-.71,1.04-.59,1.17,2.97.94,5.27,3.22,7.79,4.99l.44-.14c-.66-.38-.63-1.17-.88-1.62.91.85,2.05,2.43,2.41,3.61.21.68.11,1.29.23,1.68-1.62-.48-2.51-1.75-4.2-2.4-.79-.31-3.26-1.05-4.02-1.12-1.26-1.75-3.44-1.2-5.07-1.53-.97-.2-2.7-1.4-3.88-1.4h-4.41c-.28,0-1.46,1.06-.29-.29,3.69-2.83,7.16-2.94,11.6-2.94Z"/>
  <path class="cls-83" d="M317.76,66.97c2.63-.59,6.4.37,8.7,1.75,1.65.99,4.6,4.01,3.57,6.11-.82,1.68-2.84-1.17-3.75-1.83-1.05-.76-2.85-1.73-4.09-2.08-1.31-.37-5.74-.49-6.06-1.58s.59-2.14,1.63-2.37Z"/>
  <path class="cls-7" d="M352.5,135.02c.16.16.05.79-.44.59-2.43-.61-6.14.06-8.18-1.52-2.21-1.71-2.24-5.67-4.3-7.59l9.36,6.64c.58.37,3.38,1.7,3.56,1.88Z"/>
  <path class="cls-56" d="M336.93,185.22l-2.35-.59.29-.29c.52.08,2.03.07,2.06.88Z"/>
  <path class="cls-58" d="M212.12,134.73c.25-.81-.13-.87-.38-1.27-1.71-2.82-3.9-2.96-6.96-3.28l2.75-2.47c.91,1.14,2.63,1.14,3.7,1.9.74.52,1.02,1.84,1.92,1.6l1.03-.59c-.7,1.32-1.57,2.7-2.06,4.11Z"/>
  <path class="cls-23" d="M253.53,122.98l-2.64-.3.88-.88c.88.19,1.28.37,1.76,1.17Z"/>
  <path class="cls-101" d="M423.86,80.71c3.1,1.66,3.1,5.6,2.56,8.58-1.37,7.65-7.38,15-13.14,19.9-.67-5.38-2.04-12.03-6.46-15.56-1.23-3.44-2.63-6.83-3.59-10.37-.06-.31-.38-.36-.52-.49.8-2.26,2.24-2.35,4.35-2.84,4.72-1.11,12.41-1.56,16.79.79Z"/>
  <path class="cls-69" d="M377.17,101.85c2.84,1.78,5.88,4.14,5.28,7.93-.68-.41-5.33-2.62-5.58-1.31s3.74,2.97,4.44,3.8c.35.42-.05.67-.03.74-4.13,2.06-12.65-3.11-13.66-7.04-1.56-6.04,5.92-4.4,9.55-4.12Z"/>
  <path class="cls-103" d="M375.66,97.99c-2.17.55-1.99-.82-2.9-1.87-1.2-1.38-3.04-3.02-4.69-3.83-1.52-.74-5.76-1.37-6.34-1.88-1.08-.95-.03-2.44,1.21-2.64.96-.16,3.37-.12,4.36,0,4.1.54,10.03,5.64,8.35,10.21Z"/>
  <path class="cls-79" d="M257.56,194.39c4.3-.73,8.45,1.93,10.27,5.74,3.51,7.33-2.46,11.14-7.69,5.44-8.99,3.72-10.85-9.77-2.58-11.18Z"/>
  <path class="cls-79" d="M261.98,181.46c5.84-.8,6.54,11.4-.89,9.86-4.37-.91-3.64-9.23.89-9.86Z"/>
  <path class="cls-51" d="M251.69,183.81c5.56-1.21,5.18,9.39-.66,8.76-4.1-.45-2.77-8.01.66-8.76Z"/>
  <path class="cls-79" d="M271.37,189.09c3.65-.45,5.49,6.09,2.04,7.93-5.29,2.82-7.16-7.3-2.04-7.93Z"/>
  <path class="cls-22" d="M321.37,205.48c.33.92-.33,1.51,1.18,1.48.03.17-.3.26-.3.29-1.47.04-1.29-.68-.88-1.76Z"/>
  <path class="cls-29" d="M286.35,185.31c.12.12,1.63,2.45,1.79,2.74.49.85.83,2.58,1.49,3.42.43.55,2.04,1.11,2.28,1.47.54.82.95,3.18,1.49,4.23.35.68,1.64,1.86,1.77,2.35.43,1.68-.33.65.94,2.65,1.16,1.82.33,3.36.26,5.21-.03.82.41,1.63.32,2.32-.05.44-1.47,4.92-1.7,5.37-.99,1.94-3.43,2.9-5.5,3.02-.68.04-.52-.45-.38-.97.24-.86,1.33-2.3,1.35-3.34,0-.37-.42-.71-.5-1.15-.25-1.46-1.54-5.85-1.49-6.71.08-1.35,1.98-1.66,1.93-2.65,0-.09-.58-1.56-.63-1.64-.17-.27-.61-.01-.86-.27-.98-1-.65-3.31-1.11-4.78-1.22-3.85-4.88-7.34-6.87-10.75-1.9-3.25.09-2.9,2.45-1.86.43.19.72.63,1.19.86s1.49.19,1.76.46Z"/>
  <path class="cls-36" d="M358.96,143.24l-.58.58c1.89-.22,2.21,2.96,2.92,3.66.07.07,1.29.21,1.81.89.3.39.05.79.17,1.03,1.07,2.13,3.15,4.35,3.56,6.69.13.76-.28,2.14-.17,2.52.25.83,1.72.13,1.72,2.39,0,2.12-1.53,1.67-1.95,3.07-.21.69-.01,1.3-.14,1.88-.05.22-.42.13-.51.35-.03.07.28.48.11.74-.24.35-1.14.25-1.61.46-1.49.65-3.06,1.47-4.36,2.16-.4.21-1.41.9-1.68.89-1.23-.02-2.01-1.33-1.92-2.46.02-.22.64-.29.86-.63.37-.56.21-1.32.48-1.88.2-.41.76-.56.93-1.08.37-1.16-.59-2.38-.52-3.48.1-1.45,1.48-2.25,1.5-2.4.06-.58-2.09-6.07-2.54-6.82-.68-1.13-2.67-3.18-3.19-4.16-.16-.31.09-1.02-.45-1.44l.58-.15c-.24-.25-.55-.44-.71-.76-1.44-2.86-4.41-4.78-6.96-6.85-.31-.25-.73,0-.55-.76.53-.4,6.46,1.47,7.34,1.9,1.95.96,3.42,3.45,5.87,3.68Z"/>
  <path class="cls-96" d="M305.22,107.13c.54.6.5,1.49-.11,2.68.69,0,1.12.28,1.28.85.55-.81,2.58.57,2.35,1.47,6.91,3.21-.19,10.88-5.07,4.93l-.96-.51c-.22.1-1.51,3.93-1.34,4.61l-.55.36c.98.45,1.27,1.09.88,1.9.68.6.88,1.14.59,1.62.85.56-.04,1.1-.75,1.43-.93.19-1.66.6-2.19,1.21-.83.68-1.29,1.76-1.39,3.26l-.66.26c-1.14.37-.87-1.09-.63-1.94-1.41.94-3.09-.38-4.07-1.43-.17,1.17-1.55,1.67-1.17.44.07-.59.19-1.17.29-1.76-.31-1.02-1.29-1.76-2.96-2.23-.5-.25-.69-.59-.57-1-1.39-1.42-2.61-2.74-3-4.74-.27-1.38-.73-4.32,1.29-3.91,1.59-2.23,3.67-3.91,6.26-5.04l.15-.92c1.82-.55,3.7-.69,5.65-.43l-.08-.22c-1.15-.77.98-3.74,2.09-4.09s6.26,1.34,4.66,3.21Z"/>
  <path class="cls-90" d="M291.41,128.27s.11.31.28.3l1.04-2.94c.06,1.55.46,2.4,1.91,3.08,2.15,1,1.31-.46,2.94-1.03.12,1.01-1.03,2.7-.29,3.52,1.75-.55,2.38-1.51,1.89-2.87l.17-.65c-.96-1.54,2.54-1.24,2.94-2.64.93-1.29,2.22,1.32,2.47,2.38.22,2.06.16,4.15-.16,6.27,2.18-1.58,2.47-4.39,1.88-6.85.14-.36.38-.46.73-.38.32.07,1.15,2.46,1.25,2.99,1.35,1.22-.19,3.93-1.22,5.12-3.03,3.49-7.82,3.69-12.01,3.05-2.19,5.59-8.71,3.97-7.82-1.85-3.57-.82-7.83-3.14-7.73-7.2.14.01.23,0,.29-.15,1.74-8.15,6.41-.73,10.51.09.47.09.75-.22.95-.23Z"/>
  <path class="cls-50" d="M314.91,110.36l-.53.39c-1.42-.65-3.57-.45-3.86,1.39l-.6.28c-.28.04-.68-.06-1.17-.29-.59-.41-1.76-1.2-2.35-1.47l-.79-.48c.36-1.02.9-2.62-.38-3.04.73-1.57-3.77-2.72-4.55-2.64-.84.08-2.14,2.86-2.21,3.52l-.28.14c-4.74-.11-10.82,1.17-12.5,6.3l-.72.02c-.44,1.21-.53,2.58-.29,4.11.35.37.52,1.27.29,1.76-2.42-.12-1.63,1.67-2.21,2.93-.37.81-2.18,1.95-3.1,1.34-1.04-.69,1.39-4.01,1.03-5.17l1.04-1.46c0-.48.23-.83.69-1.04-1.18-.58-1.87-1.72-2.44-2.84-.13.46-.42.47-.89.36-.41-.53-.97.79-1.36.86-.59.1-1.18-1.4-2.02-1.18l-2.2.91c7.19-12.29,27.39-17.4,38.61-7.92.95.81,2.33,2.07,2.8,3.22Z"/>
  <path class="cls-4" d="M307.27,136.49c-2.38,1.73-5.59,3.4-8.68,2.95-.87-.13-1.32-.84-2.27-.56-1.07.32-1.23,3.25-4.16,3.49-4.2.35-5.01-1.81-4.86-5.59-1.98-.02-4.48-1.39-5.71-2.95-.75-.96-1.99-3.07-2.2-4.26-.08-.43-.01-.88-.01-1.31.14.04.24.29.29.3.41,3.91,5.08,6.09,8.51,6.77-1.37,3.24.59,5.9,4.13,4.84,1.99-.59,2.31-3.06,2.51-3.12.63-.17,3.82.42,5.22.28,4.28-.44,8.63-3.16,8.41-7.89-.43-1.86-1.46-3.38-3.09-4.58l.15-.71c1.22.81,2.09,1.08,2.89,2.54,1.93,3.53,1.48,6.83-1.13,9.79Z"/>
  <path class="cls-2" d="M279.08,114.47c.43-.66.36-.59.59-1.32.42-1.38.61.21.82.64.74,1.56,1.47,2.61,3.29,3.03-.41.66-1.33.79-2.05,1.17-1.54.82-1.04.85-1.74,2.23-.12.23-.1.92-.61.42-.1-.1-.55-2-1.04-2.63s-2.53-1.35-1.71-1.77c1.21-.61,1.52-.35,2.45-1.76Z"/>
  <path class="cls-98" d="M288.18,123.28c.72.56,1.34,1.08,2.15,1.52.39.21,1.61.48,1.66.55.21.3-.24.9-.29,1.16-.45-1.41-2.1-1.12-3.25-1.89-.86-.58-3.1-3.32-3.51-4.27-.25-.58-.2-1.19-.29-1.76,0-.24.03-.36.29-.29.61,1.96,1.7,3.54,3.23,4.99Z"/>
  <path class="cls-104" d="M305.51,98.91c7.13,1.2,15.55,9.02,17.62,15.85-.57.28-2.25.8-2.33.9-.47.54,1.12,2.49.28,3.21-2.3-13.49-16.34-20.29-29.07-17.91l-.15-.29c1.75-.54,4.49-.19,6.11-.65.73-.21,1.23-1.59,2.13-1.71,1.09-.14,3.53.67,4.73.88.38.07.65-.29.69-.28Z"/>
  <path class="cls-54" d="M270.27,130.91s.04.34-.29.29c-1.9-5.65-1.47-12.18,2.05-17.03-2.74,5.24-3.53,11.02-1.76,16.73Z"/>
  <path class="cls-31" d="M314.91,110.36c1.94,1.1,3.48,5.53,4.11,7.63-2.16,2.84-4.63,1.64-6.75-.59l-.51-.54c.15-1.73-.46-3.21-1.84-4.45.03-2.59,3.04-3.16,4.99-2.06Z"/>
  <path class="cls-95" d="M301.69,121.81c1.26.67,2.62,1.56,3.82,2.35,1.68,1.88,2.81,2.53,2.94,5.28l-1.47-2.94c.83,3.26.22,6.59-2.94,8.22-.34-3.22,1.42-6.46-.92-9.22-.36-.43-.8-.43-.84-.47-.24-.25-1.09-1.21-1.14-1.39-.17-.61.29-1.1.27-1.38-.02-.25-.56-.26-.76-.47-.17-.17.16-.27.16-.29.39-.69.82-.51.88.29Z"/>
  <path class="cls-105" d="M309.91,112.41c1.9,1.14,2.79,2.62,2.35,4.99-.48,2.58-4.12,4.59-6.45,3.07-.79-.51-2.11-3.21-2.8-3.07-.34.07-.93,3.76-1.33,4.4-.22-.11-.64-.1-.88-.29-.26-1.69,1-4.24,1.61-5.86,2.4.93,4.74,4.93,7.31,2.31s1.42-4.15-1-5.84l.15-.3c.42.06.69.39,1.02.59Z"/>
  <path class="cls-60" d="M297.58,70.14c.54.18,1.26.36,1.76.59,1.09.5,3.67,1.83,3.68,3.08.01,1.62-2.94.19-3.98-.15-.7-.23-2.1-.65-2.64-.88-.59-.25-4.39-2.81-4.4-3.08-.06-1.29,4.98.24,5.57.44Z"/>
  <path class="cls-46" d="M185.63,167.69c3.08-.34,6.04.89,7.83,3.46s2.01,7.35-2.02,7.63c-1.43.1-2.88-.72-3.76-.56-.57.11-1.38.91-2.06,1.19-2.04.83-4.03.24-5.45-1.42-3.54-4.14.75-9.77,5.47-10.29Z"/>
  <path class="cls-18" d="M183.85,155.63c4.81-.45,6.99,10.44-.05,9.31-4.51-.72-4.66-8.87.05-9.31Z"/>
  <path class="cls-67" d="M173.87,160.34c5.66-1.46,7.03,8.96,1.73,8.43-4.19-.42-5.2-7.53-1.73-8.43Z"/>
  <path class="cls-80" d="M192.66,159.45c5.53-1.24,5.58,9.67-.14,7.35-2.83-1.15-2.53-6.75.14-7.35Z"/>
  <path class="cls-101" d="M339.87,26.98c1.98,5.97,3.75,12.17,4.11,18.5-.67-.92-1.93-2.15-2.8-2.93-.42-.37-3.97-3.2-4.25-2.94l3.52,4.98c-8.54-.99-16.88.21-24.96,2.94.05-.51.29-.94.53-1.37,2.99-5.4,14.24-17.51,20.11-19.24,1.64-.49,2.29-.11,3.74.07Z"/>
  <path class="cls-55" d="M298.46,108.01s.35.08.3.29c-.75-.02-4.97.03-5.27.32-.08.08.04.85-.29,1.32-.29.42-2.87,1.54-3.69,2.19-1.32,1.04-2.28,2.45-3.24,3.81l-.15-.88c-1.58.13-.84,3.59-.43,4.69l2.49,3.53c-2.01-1.56-2.73-2.31-3.23-4.99-.52-1-.63-2.86,0-3.82.17,0,1.07-2.27,1.61-2.94,2.82-3.46,7.77-3.68,11.9-3.52Z"/>
  <path class="cls-28" d="M296.4,113.3l-1.03,3.52-1.31,2.35c-1.29-2.42-.51-5.3,2.34-5.87Z"/>
  <path class="cls-68" d="M299.34,127.68c.79.56.72,1.97.26,2.76-.36.61-1.81,1.32-2.32.77l.88-3.82c.06-.05,1.05.2,1.17.29Z"/>
  <path class="cls-48" d="M306.39,110.65c-.35-.15-1.95-.15-2.01-.73.53-.84.56-1.94.84-2.8.08-.24.41-.48.3-.88.68.25,1.16,1.91,1.14,2.51-.03.66-.86,1.17-.26,1.9Z"/>
  <path class="cls-41" d="M284.95,114.47c-.34,1.51-.28,2.34,0,3.82l-.29.29c-.26-1.55-.51-2.75,0-4.4.33-.05.27.29.29.29Z"/>
</svg>