<?xml version="1.0" encoding="UTF-8"?>
<svg id="Layer_1" data-name="Layer 1" xmlns="http://www.w3.org/2000/svg" xmlns:xlink="http://www.w3.org/1999/xlink" viewBox="0 0 19.91 19.91">
  <defs>
    <style>
      .cls-1 {
        fill: #fd4022;
      }

      .cls-2 {
        fill: #fff;
      }

      .cls-3 {
        fill: none;
      }

      .cls-4 {
        fill: #f15a29;
      }

      .cls-5 {
        clip-path: url(#clippath);
      }
    </style>
    <clipPath id="clippath">
      <rect class="cls-3" width="19.91" height="19.91" rx="4" ry="4"/>
    </clipPath>
  </defs>
  <rect width="19.91" height="19.91" fill="#ffffff"/>
  <g class="cls-5">
    <path class="cls-1" d="M15.98,14.99l1.51.48c.3,0,.43-.35.17-.52-.17-.11-1.36-.39-1.37-.48.15-.21.18-.49.32-.69.12-.04,1.08.21,1.31.22.37.02.54-.26.24-.51l-1.43-.25s.06-.64.08-.67c.06-.07,1.12-.15,1.31-.21.3-.11.26-.54-.09-.55l-1.23.19c.03-.81-.19-1.65-.53-2.39-.12-.27-.55-.86-.59-1.07-.03-.18,0-.37-.01-.55-.1-1.15-.42-4.06-1.34-4.8-.51-.41-1.01-.05-1.43.3-.81.69-1.4,1.69-2,2.55-.55-.04-1.1-.04-1.65-.03-.14,0-.31.09-.41,0-.57-.88-1.19-1.88-1.99-2.56-.4-.34-.89-.65-1.37-.28-1.08.83-1.26,4.12-1.4,5.41-.71.99-1.15,2.15-1.16,3.38-.28-.03-1.11-.36-1.16.1-.05.45.92.31,1.18.46l.09.76s-.91.13-1.06.2c-.19.08-.24.33-.07.46.22.17.99-.12,1.28-.13.04.16.11.32.18.48.04.09.13.2.15.26.03.06-.01.04-.04.06-.25.12-1.1.22-1.15.51-.05.31.21.35.45.29.35-.09.72-.25,1.07-.34.54.58,1.2,1.03,1.92,1.36,2.72.69,5.5.72,8.33-.05.71-.33,1.36-.79,1.87-1.4ZM7.46,11.67s-.03.03-.06.04c-.04.02-.09.04-.15.05-.06.01-.12.02-.19.02s-.15.02-.23.03c-.04,0-.08.02-.13.03-.09.02-.18.05-.28.08-.09.03-.18.06-.27.09-.07.03-.16.08-.24.12s-.16.09-.22.1c-.14.03-.23-.02-.29-.1-.03-.04-.05-.09-.07-.14s-.03-.11-.05-.17c-.08-.3-.05-.63.06-.93.04-.1.08-.19.14-.28.06-.09.12-.17.19-.24.07-.07.15-.13.24-.18s.18-.09.28-.11c.1-.02.21-.03.33-.02.22.02.43.13.6.3.06.05.11.11.15.18h0c.14.18.22.4.25.6.03.31,0,.47-.08.55ZM11.52,14.9h0c-.45.32-1.01.53-1.56.58-.61.05-1.42-.06-1.94-.41-.35-.24-.16-.67.21-.59.09.02.29.18.42.23.86.35,1.97.18,2.68-.42.21-.18.41-.59.71-.44.53.26-.27.89-.51,1.05ZM14.36,11.82c-.02.09-.04.17-.07.23-.03.07-.07.12-.11.15-.02.01-.03.02-.05.02-.11.03-.22-.01-.32-.07-.06-.03-.12-.07-.18-.09-.09-.03-.17-.07-.26-.1-.09-.03-.18-.06-.27-.09-.06-.02-.18-.04-.31-.06-.08-.01-.16-.03-.24-.04h0c-.19-.04-.36-.08-.39-.12-.17-.24.03-.89.2-1.13.1-.15.22-.25.34-.33.08-.05.17-.09.26-.11.17-.05.35-.04.52,0,.13.04.25.1.36.18.26.19.47.5.54.87.03.13.03.44-.02.69Z"/>
    <path class="cls-4" d="M14.36,11.82c-.02.09-.04.17-.07.23.03-.07.05-.15.07-.23Z"/>
    <path class="cls-4" d="M12.56,11.77h0c.08.02.16.03.24.04-.08-.01-.16-.03-.24-.04h0Z"/>
    <path class="cls-4" d="M14.14,12.23s.03-.01.05-.02c-.02.01-.03.02-.05.02h0Z"/>
    <path class="cls-4" d="M13.38,11.96c.09.03.17.07.26.1.06.02.12.06.18.09-.06-.03-.12-.07-.18-.09-.09-.03-.17-.07-.26-.1Z"/>
    <path class="cls-4" d="M14.19,12.2s.08-.08.11-.15c-.03.07-.07.12-.11.15Z"/>
    <path class="cls-4" d="M13.48,10.08c.13.04.25.1.36.18-.11-.08-.24-.14-.36-.18Z"/>
    <path class="cls-4" d="M13.48,10.08c-.17-.05-.35-.05-.52,0,.17-.05.35-.04.52,0Z"/>
    <g>
      <path class="cls-2" d="M-5.88-12.25V20.88H26.84V-12.25H-5.88ZM16.75,13.25l1.43.25c.3.25.13.53-.24.51-.24-.02-1.19-.26-1.31-.22-.14.2-.17.49-.32.69,0,.08,1.2.37,1.37.48.26.16.12.52-.17.52l-1.51-.48c-.52.61-1.16,1.07-1.87,1.4-2.83.76-5.6.73-8.33.05-.73-.33-1.39-.78-1.92-1.36-.35.1-.72.25-1.07.34-.23.06-.5.02-.45-.29.05-.29.9-.39,1.15-.51.03-.02.07,0,.04-.06-.02-.06-.11-.17-.15-.26-.07-.15-.14-.32-.18-.48-.29.01-1.06.31-1.28.13-.17-.14-.12-.38.07-.46.16-.07,1.03-.16,1.06-.2l-.09-.76c-.26-.15-1.23,0-1.18-.46.05-.46.88-.13,1.16-.1.01-1.23.45-2.39,1.16-3.38.15-1.29.32-4.57,1.4-5.41.49-.38.97-.06,1.37.28.8.69,1.43,1.68,1.99,2.56.11.09.27,0,.41,0,.55-.01,1.11,0,1.65.03.6-.86,1.19-1.87,2-2.55.42-.36.92-.71,1.43-.3.91.74,1.23,3.65,1.34,4.8.02.18-.02.37.01.55.03.21.46.8.59,1.07.34.73.56,1.57.53,2.39l1.23-.19c.35,0,.39.44.09.55-.19.07-1.25.14-1.31.21-.02.02-.11.65-.08.67Z"/>
      <path class="cls-2" d="M7.29,10.52c-.05-.06-.1-.12-.15-.18-.17-.16-.38-.28-.6-.3-.11,0-.22,0-.33.02-.1.02-.2.06-.28.11s-.17.11-.24.18c-.07.07-.14.15-.19.24-.06.09-.1.18-.14.28-.11.3-.14.63-.06.93.01.06.03.11.05.17.02.05.04.1.07.14.06.08.15.13.29.1.06-.01.14-.05.22-.1.08-.05.17-.09.24-.12.09-.03.18-.06.27-.09.09-.03.19-.05.28-.08.04-.01.09-.02.13-.03.08-.01.16-.02.23-.03s.13-.01.19-.02c.06-.01.1-.02.15-.05.02-.01.04-.02.06-.04.09-.08.12-.24.08-.55-.02-.2-.11-.42-.25-.6Z"/>
      <path class="cls-2" d="M13.85,10.27c-.11-.08-.24-.14-.36-.18-.17-.05-.35-.05-.52,0-.09.02-.17.06-.26.11-.12.08-.24.19-.34.33-.16.23-.37.89-.2,1.13.03.04.2.08.39.12h0c.08.02.16.03.24.04.13.02.25.04.31.06.09.03.18.06.27.09.09.03.17.07.26.1.06.02.12.06.18.09.1.06.21.1.32.07h0s.03-.01.05-.02c.05-.03.08-.08.11-.15.03-.07.05-.15.07-.23.05-.26.04-.56.02-.69-.07-.37-.28-.67-.54-.87Z"/>
      <path class="cls-2" d="M12.03,13.84c-.3-.15-.5.27-.71.44-.71.6-1.82.77-2.68.42-.12-.05-.33-.21-.42-.23-.37-.08-.56.35-.21.59.52.35,1.33.46,1.94.41.55-.05,1.11-.27,1.56-.58h0c.24-.17,1.04-.79.51-1.05Z"/>
    </g>
  </g>
</svg>