<svg xmlns="http://www.w3.org/2000/svg" viewBox="0 0 512 512">
  <defs>
    <linearGradient id="bg" x1="0" y1="0" x2="1" y2="1">
      <stop offset="0" stop-color="#3ddc84"/>
      <stop offset="1" stop-color="#0f7a3d"/>
    </linearGradient>
    <linearGradient id="coin" x1="0" y1="0" x2="0" y2="1">
      <stop offset="0" stop-color="#fde55c"/>
      <stop offset="1" stop-color="#fdc71a"/>
    </linearGradient>
  </defs>

  <rect width="512" height="512" fill="url(#bg)"/>

  <circle cx="178" cy="150" r="46" fill="#f37721"/>
  <circle cx="334" cy="150" r="46" fill="#f37721"/>
  <circle cx="178" cy="160" r="22" fill="#f59489"/>
  <circle cx="334" cy="160" r="22" fill="#f59489"/>

  <ellipse cx="182" cy="398" rx="34" ry="40" fill="#fefcf8" transform="rotate(-18 182 398)"/>
  <ellipse cx="330" cy="398" rx="34" ry="40" fill="#fefcf8" transform="rotate(18 330 398)"/>

  <circle cx="256" cy="400" r="56" fill="url(#coin)" stroke="#f0a800" stroke-width="6"/>
  <circle cx="256" cy="400" r="38" fill="none" stroke="#fff3c4" stroke-width="4" opacity="0.6"/>

  <circle cx="256" cy="216" r="112" fill="#f37721"/>

  <ellipse cx="216" cy="210" rx="15" ry="19" fill="#2e1c14"/>
  <ellipse cx="296" cy="210" rx="15" ry="19" fill="#2e1c14"/>
  <circle cx="221" cy="203" r="4.5" fill="#fff"/>
  <circle cx="301" cy="203" r="4.5" fill="#fff"/>

  <path d="M246 244 L266 244 L256 256 Z" fill="#f59489"/>
</svg>
