<?xml version="1.0" encoding="UTF-8"?>
<svg id="Layer_1" data-name="Layer 1" xmlns="http://www.w3.org/2000/svg" xmlns:xlink="http://www.w3.org/1999/xlink" viewBox="0 0 155.57 176">
  <defs>
    <style>
      .cls-1 {
        fill: #f58325;
      }

      .cls-2 {
        fill: #f8a024;
      }

      .cls-3 {
        fill: #f7a19b;
      }

      .cls-4 {
        fill: #f1d48a;
      }

      .cls-5 {
        fill: #f58126;
      }

      .cls-6 {
        fill: #2e1d13;
      }

      .cls-7 {
        fill: #e3d9d1;
      }

      .cls-8 {
        fill: #f69b22;
      }

      .cls-9 {
        fill: #f7bd21;
      }

      .cls-10 {
        fill: #f8a32a;
      }

      .cls-11 {
        fill: #523c2a;
      }

      .cls-12 {
        fill: #fdfcf9;
      }

      .cls-13 {
        fill: #fbd124;
      }

      .cls-14 {
        fill: #2d1d12;
      }

      .cls-15 {
        fill: #fad04a;
      }

      .cls-16 {
        fill: #f68b24;
      }

      .cls-17 {
        fill: #fbeb77;
      }

      .cls-18 {
        fill: #f48027;
      }

      .cls-19 {
        fill: #f68824;
      }

      .cls-20 {
        fill: none;
      }

      .cls-21 {
        fill: #f47b25;
      }

      .cls-22 {
        fill: #f9f19a;
      }

      .cls-23 {
        fill: #f68c2f;
      }

      .cls-24 {
        fill: #f47c27;
      }

      .cls-25 {
        fill: #f47e25;
      }

      .cls-26 {
        fill: #e6dcd5;
      }

      .cls-27 {
        fill: #f7c4bf;
      }

      .cls-28 {
        fill: #f6a622;
      }

      .cls-29 {
        fill: #fada35;
      }

      .cls-30 {
        fill: #2e1d12;
      }

      .cls-31 {
        fill: #523c29;
      }

      .cls-32 {
        fill: #f38c22;
      }

      .cls-33 {
        fill: #f8ed8a;
      }

      .cls-34 {
        fill: #f9beb7;
      }

      .cls-35 {
        fill: #f1bfb1;
      }

      .cls-36 {
        fill: #533c2a;
      }

      .cls-37 {
        fill: #533c29;
      }

      .cls-38 {
        fill: #f8a42c;
      }

      .cls-39 {
        fill: #f7a39b;
      }

      .cls-40 {
        fill: #f7a29b;
      }

      .cls-41 {
        fill: #fbf5f4;
      }

      .cls-42 {
        fill: #fae043;
      }

      .cls-43 {
        fill: #f58226;
      }

      .cls-44 {
        fill: #f9a625;
      }

      .cls-45 {
        fill: #fcfaf9;
      }

      .cls-46 {
        fill: #f9c5c0;
      }

      .cls-47 {
        fill: #f8bab4;
      }

      .cls-48 {
        fill: #f8ef8e;
      }

      .cls-49 {
        fill: #f57e24;
      }

      .cls-50 {
        fill: #f8a22b;
      }

      .cls-51 {
        fill: #f58424;
      }

      .cls-52 {
        fill: #f7a099;
      }

      .cls-53 {
        fill: #f28c27;
      }

      .cls-54 {
        fill: #f68a24;
      }

      .cls-55 {
        fill: #2f1e13;
      }

      .cls-56 {
        fill: #f8a028;
      }

      .cls-57 {
        fill: #f8a42d;
      }

      .cls-58 {
        fill: #fbf6f4;
      }

      .cls-59 {
        fill: #f8a329;
      }

      .cls-60 {
        fill: #f59d28;
      }

      .cls-61 {
        fill: #ed7d24;
      }

      .cls-62 {
        fill: #fcc51e;
      }

      .cls-63 {
        fill: #f7a49d;
      }

      .cls-64 {
        fill: #f57e2c;
      }

      .cls-65 {
        fill: #f8a32c;
      }

      .cls-66 {
        fill: #f68726;
      }

      .cls-67 {
        fill: #f58224;
      }

      .cls-68 {
        fill: #f68925;
      }

      .cls-69 {
        fill: #f7a923;
      }

      .cls-70 {
        fill: #eab524;
      }

      .cls-71 {
        fill: #f69525;
      }

      .cls-72 {
        fill: #f49e97;
      }

      .cls-73 {
        fill: #f5af3d;
      }

      .cls-74 {
        fill: #f9e754;
      }

      .cls-75 {
        fill: #f58d25;
      }

      .cls-76 {
        fill: #f8eb74;
      }

      .cls-77 {
        fill: #fbcf22;
      }

      .cls-78 {
        fill: #f47b2c;
      }

      .cls-79 {
        fill: #e6ddd7;
      }

      .cls-80 {
        fill: #f57f26;
      }

      .cls-81 {
        fill: #f79f23;
      }

      .cls-82 {
        fill: #fae753;
      }

      .cls-83 {
        clip-path: url(#clippath);
      }

      .cls-84 {
        fill: #f8a42a;
      }

      .cls-85 {
        fill: #f9bfb8;
      }

      .cls-86 {
        fill: #f47c30;
      }

      .cls-87 {
        fill: #f7a39c;
      }

      .cls-88 {
        fill: #f8a328;
      }
    </style>
    <clipPath id="clippath">
      <rect class="cls-20" x="-6.81" y="5.45" width="170.55" height="170.55"/>
    </clipPath>
  </defs>
  <g class="cls-83">
    <path class="cls-6" d="M133.76,134.64c9.46,4.03,12.61,15.09,7.13,23.79-6.58,10.44-22.54,12.92-33.93,12.3-4.14-.22-9.12-1.44-11.84-4.75-7.36,2.19-15.52-.18-19.39-7.01l-.4-.22c-7.55.42-15.19-.52-22.45-2.58-6.24,3.55-14.85,5.31-21.88,3.45-12.41-3.29-26.22-22.12-12.28-32-.24-5.89,1.68-11.73,5.38-16.27-5.39-8.59-1.71-19.87,5.86-25.78.06-.24-1.41-1.51-1.68-1.84-5.54-6.68-4.63-17.1.92-23.48.55-.63,2.07-1.75,2.36-2.24.57-.94,1.2-3.57,1.75-4.85.39-.9,2.03-3.61,2.15-4.15.1-.49-.55-4.22-.59-5.18-.25-5.59.31-11.91,1.74-17.31,2.01-7.59,4.93-11.87,13.55-9.18,5.02,1.57,9.66,5.13,13.79,8.27,8.52-3.37,18.05-3.09,26.87-1.07,4.67-4.05,10.49-7.78,16.42-9.69,7.58-2.45,11.46-1.51,14.25,6.11s2.92,16.87,1.72,25.15c1.38,2.19,2.41,4.54,3.35,6.94.34.88.51,1.98.89,2.79.46.99,1.49,2.12,2.05,3.17,4.18,7.77,3.67,17.49-1.87,24.44-.3.38-2.32,2.42-2.29,2.59,6.29,8.31,9.54,18.67,10.27,29.04.46,6.54.17,13.29-1.84,19.57Z"/>
    <path class="cls-41" d="M57.6,31.46c.14.04.22.14.24.28-.26.6-.59,2.98.53,1.93l.48.11c.13,2.04.81,4.56,2.65,5.62-.03-.65.52-.84.9-.33.42.99,1.03,1.73,1.83,2.22.16-.25.42-.34.69-.19,1.02.92,2,1.79,3.45,1.87.2-.69.75-.48,1.33-.18,4.08,0,7.93,1.82,10.55,4.95,4.23,5.28,8.69,10.25,14.7,13.68l6.54,3.89c2.95,1.82,5.44,4.03,6.67,7.31,1.01,1.74,3.32,3.41,5.05,4.41,1.01.58,1.4.7,2.49.4.43.29,3.19,1.76,3.43,1.47-.01-.31.12-.54.44-.53,1.6,1.02,3.18,1.2,4.73.55l1.75.15c.44-.13.81-.13,1.11,0-1.51,2.88-3.42,5.01-5.98,7.01.18.82,1.09.32,1.61.66.36.24,1.27,1.84,1.6,2.31.61,1.16,2.07,4.85,1.7,5.96-.04.12-.1.23-.16.34.74,1.73.52,4.07.19,5.97-.42,2.41-1.27,4.5-2.38,6.6-1.07,2.17-.83,4.32,1.68,5.21.88.31,1.18.3,2.02.05l2.16.95c.37-.7,1.05-.62,2.04.24h1.31s.19.33.19.33c.08.93.31,2.27.31,3.15v4.61c0,.85-.21,2.22-.31,3.15l-.2.08c-.73-.99-1.49-2-2.27-3.02-.28-.28-.89-.85-1.07-.26l-.42.07c-1.45-1.33-3.17-1.89-5.14-1.52-.57-.13-.53-.65-.05-.94.02-.54-5.07.67-5.47,1.13-.47-.03-.6-.39-.34-.76-.27-.69-5.5,2.26-5.89,2.93-.38.15-.65-.08-.62-.48-2.74,1.8-4.91,4.5-6.15,7.59l-.49.41c-.64.2-1.38.23-2.21.08-2.45.17-4.89.45-7.31.84-.05.29-.17.27-.31,0-.8.05-2.01.67-2.68.61-.23-.02-1.26-.76-1.67-.94-6.01-2.69-13.15-.67-16.5,5.05-2.82,4.81-2.76,10.6-1.41,15.86.16.64-1.05.67-1.23.15-2.6.49-5.28.15-7.88-.34-5.93-1.11-12.35-3.71-15.89-8.66-1.05-.64-1.9-1.52-2.55-2.65-.74-.85-1.55-1.71-2.6-2.17,1.95,4.19,3.58,8.94,2.88,13.62-.27,1.77-.95,4.17-2.67,4.95-4.23.95-6.5,1.58-10.93.42-8.67-2.28-19.94-13.76-16.21-23.33,1.29-3.32,5.57-6.28,9.1-6.56,6.81-.54,9.43,2.37,14.12,6.29.17.14.25.37.54.31-1.61-4.59-5.56-7.58-10.29-8.44-.1-.05-.2-.11-.29-.18-.64-.52-1.29-5.01-.85-5.71.06-.09.14-.18.22-.26-.46-.11-.4-.42,0-.61-.06-.07-.11-.14-.14-.21-.25-.7,1.03-3.66,1.44-4.48l.39-.22c-.61-1.27.18-1.33,2.37-.17l1.78.44.31.34c.37.56.02.67-.53.62,3.13,1.54,6.73,2.39,10.26,2.19l.41.26c.37-.42,1.05-.68,1.64-.6.74.09,2.93,1.46,3.55,1.94,13.01,12.65,34.51,12.4,47.45-.09,1.04-.72,2.23-1.5,3.52-1.09,4.24.1,8.44-.8,12.01-3.1-1.56.23-3.12.39-4.7.48-.32,0-.39-.17-.22-.46l.48-.41c11.01-2.05,18.5-14.08,9.02-22.72-3.04-2.77-6.57-3.99-10.49-4.85l-.24-.43c.18-.31.55-.45,1.1-.43l-3.15-.43-.56-.36c-.53.11-1.85.28-1.24-.49l4.1-2.01-1.35-.25c-1.23-.44-2.35-.82-3.64-.89-1.57-1.43-3.22-2.77-4.94-4.03l-.74-.43c-12.39-14.85-37.73-14.17-48.77,1.93l-.7.5c-1.48,1.69-3.12,3.14-4.91,4.35l-2.65.75c1.15.43,2.17,1.05,3.05,1.94l.07.49c-.55.3-1.22.43-2.02.4-1.07.29-2.08.37-3.05.22l-.15.33c-.94.08-1.93.03-2.84-.22-.6-.17-2.06-.62-1.76-1.33,2.27-1.72.89-1.36-.62-2.53-.61-.47-.95-1.11-1.38-1.62-.32-.68-.23-1.44.26-2.27,1.08-6.33,7.85-9.8,13.25-12.14.47-.26.89-.59,1.28-.96l.42.02c-.05-.4.2-.62.77-.65,5.04-.1,7.7-4.48,1.6-6.48l-.07-.39-.52.05c-2.53-1.66-5.07-2.14-7.96-2.14l-.12-.36c.26-.1.67-.16.77-.46-1.91-.68-3.8-.15-5.68.3,2.57-9.01,8.76-16.67,16.47-21.84,1.82-1.22,3.74-2.27,5.64-3.34-.04-.48.61-.61.92-.31Z"/>
    <path class="cls-57" d="M121.02,31.92c.04.1.06.2.05.3-.16,1.16-.78,5.56-1.62,6.08-1.16.72-1.22-1.19-1.19-1.93l-.24-.73c.48-4.66-.08-9.06-1.31-13.52-.53-1.92-1.83-4.08-4.11-3.76l-.33-.26-.22-.26c.27-1.59-1.97-.81-2.83-.46-4.91,2.02-10.73,6.16-13.71,10.56.78.52.61.95-.49,1.31-.93.93-1.91,1.54-3.12,2.06-.6.26-.88.75-.85,1.45-.66.11-3.69,4.27-3.36,4.52,2.4-.46,4.38-1.13,6.21-2.82.51.07.46.5.34.9,1.48-.33,2.72-1.25,3.81-2.27.32-.15.65-.08.97.21.79-1.05,1.68-1.33,2.66-.83.99-.24,1.99-.47,2.99-.68,6.59,2.95,12,8.53,15.09,15.13.52,1.1,1.96,4.33,1.82,5.32-.02.14-.06.27-.11.41-.28.19-.48.45-.59.77l-.23.04c-.92-.74-1.91-1.23-2.95-1.47-.44.99-2.17.27-2.67-.44-.56.17-2.81.68-3.23.46-.24-.12-.36-.24-.5-.48-.55-.34-3.58.93-4.23,1.32-.24.04-.46-.06-.66-.29-2.1.41-3.97,1.51-5.67,2.69l-.14.32c-12.89,3.17.41,10.45,5.9,4.36l.39-.07.38-.15c.6.84,1.36,1.28,2.33,1.64,2.07.55,3.85,1.49,5.32,2.81.66,1.28,1.82,2.2,3.46,2.78.97.53,2.28,1.92.47,1.61,1.01,1.26,2.16,2.39,3.45,3.39.13.9.45,1.66.96,2.27.19-.26.38-.45.71-.34l1.57,1.64c.24.21.53.13.89-.24.29-.03,1.62,1.15,1.81,1.48-.29.79-.69,1.56-1.07,2.3-.94.63-1.99.1-2.83.16-.31.02-.83.35-1.28.41-1.42.2-2.4-.52-3.64-1.04l.07.61c-.67.03-1.33-.2-1.95-.43-.48-.18-1.76-1.05-2-1.09-.33-.04-.46.26-.7.26-1.48,0-5.45-3.13-6.4-4.35-.79-1.01-1.14-2.3-1.84-3.38-2.39-3.7-9.13-6.78-12.89-9.22-2.89-1.88-5.73-4.12-8.15-6.59-3.66-3.73-6.77-9.67-12.25-10.78-1.44-.29-2.97-.59-4.42-.81-.5-.07.04.38-.07.46-.86.08-1.87-.27-2.6-.7-.45-.27-1.33-1.24-1.62-1.3-.1-.02,0,.33-.3.32s-.62-.23-.84-.41c-.52-.43-1.22-1.93-1.39-2.06-.5-.39-.09.56-.15.61-1.03.09-1.75-1.07-2.21-1.85-.74-1.25-1.13-2.5-1.01-3.98-.54,0-.53.73-1.06.22-.65-.61-.2-1.92,0-2.68l-.02-.34,2.92-1.79.32.14c1.6-.58,3.15-1.27,4.76-1.84l.2.27c-.61.91-1.12,1.88-1.53,2.89.81-.36,1.31-.32,1.5.11-.13.44-1.09,4.06-.34,4.12.41-.21.71-.2.92.04.16,1.24.39,2.47.7,3.67.24-.18.49-.17.68.06.1.59,1.66,3.52,2.06,3.57s1.21-3.41,1.2-3.93c.13-.25.37-.34.64-.26.17-.09.9-2.16.46-2.38.54-1.25,1.29-2.4,2.24-3.48-.36-.17-.53-.47-.33-.85.69-.66,1.36-1.33,2-2-.04-.21-.07-.42.04-.61.24-.44,3.69-2.97,4.19-3.14l.75-.06c1.21-.43,4.31.25,5.68.46l.02.38c-1.59.9-2.88,2.02-3.89,3.36.01.65-.21,1.14-.66,1.47-1.05.46-1.51,1.02-1.38,1.7-.75.93-2.76,6.55.2,4,1.78-1.98,3.64-3.94,5.66-5.75,1.87-1.68,3.45-2.59,5.52-3.77-.48-.12-.77-.33-.88-.63,4.83-4.34,11.03-8.4,17.32-10.24s8.84-.68,10.82,5.67c1.01,3.23,1.44,6.28,1.65,9.64Z"/>
    <path class="cls-58" d="M97.83,145.39c.45.79.49,2.15.41,3.11-.14,1.62-.48,3.68-1.33,5.03-2.07,1.68-3.58,4.69-3.53,7.37-.27,1.09-1.65,2.22-2.59,2.82-.82.52-1.63.9-2.63.71-1.63.08-3.79-.69-5.22-1.46-10.79-5.72-13.4-29.53,1.61-30.79,6.88-.58,10.68,4.51,12.44,10.45.27.91.3,2,.84,2.76Z"/>
    <path class="cls-31" d="M105.05,130.81c.74-2.02,1.87-3.92,3.3-5.53.55-.62,2.96-2.93,3.69-2.91.52.02-.29.66,0,.76.92-.93,5.25-3.71,6.38-3,.47.3-.51.71.07.69,1.33-.54,2.86-1.15,4.3-1.22.32-.02,1.76-.11,1.61.53-.05.21-.61.11-.46.54,1.19-.34,2.96-.09,4.04.49.37.2,1.29,1.14,1.48,1.03.02-.01-.03-.32.3-.37,1.15-.19,2.79,2.96,3.4,3.76-.87,7.95-3.56,14.83-9.67,20.11-.39-.1-.45-.49-.18-1.17-.58-.25-.82-.57-.74-.98l-.25-.31c.4-.82.29-1.47-.31-1.95-1.05.18-1.6-.53-1.65-2.11-.9-1.3-2.08-2.41-3.51-3.33l-.54-.7c-1.02.21-3.39-.39-3.19-1.64-1.13.04-1.84-.31-2.12-1.04-1.1.08-2.16.02-3.19-.17-.72-1.03-.97-1.2-2.32-.91-.43,0-.77-.23-.43-.6Z"/>
    <path class="cls-37" d="M100.75,55.26c.03-.43.37-.59.66-.8,1.48-1.09,3.54-1.93,5.33-2.27l.08.46c1.59-.77,3.15-1.59,4.99-1.38l-.15.46c.73-.08,1.66-.05,2.37-.16.23-.04.4-.25.63-.3.86-.15.68.34,1.09.58.19.11,1.5.41,1.58.33.05-.05-.09-.43.09-.47,1.19-.24,2.45.93,3.37,1.54l-.08-.77c.23.07.56.08.77.15.1-.11.21-.17.36-.19.19-.02,2.48,1.48,2.34,1.86l.22-.13c.29.78.36,1.69.71,2.44s1.17,1.7,1.62,2.52c3.05,5.55,3.7,11.61,1.51,17.61-.57.12-1.66-1.23-1.77-1.23-.07,0-.28.38-.49.44-.66.17-1.7-1.38-2.12-1.82-.35-.14-.23.54-.61.46-.19-.04-.81-.87-.88-1.11-.15-.46-.04-.88-.26-1.27-.27-.48-1.8-1.49-2.3-2-.25-.26-1.65-1.81-1.4-2.06.41-.06.73.11,1.07.31.23-.24-.98-1.06-1.18-1.2-.92-.63-2.57-1.15-3.19-2.03-.22-.32-.23-.64-.53-1-1.43-1.67-4.88-2.16-6.72-3.42-.59-.4-.35-.69-.97-.95-.15.35-2.66-.18-2.81-.31-1.14-.93,1.76-1.54,2.4-1.53-.67-2.08-3.45-2.56-5.44-2.48l-.29-.29Z"/>
    <path class="cls-36" d="M136.06,160.44c-.23-.29-.22-.77.01-1.43-.44-.24-.6-.53-.47-.88-.43-.31-.37-.86.17-1.64-2.15-.76-2.63-1.65-1.44-2.67l-1.76-.67c-.68-.26-.98-.97-.25-1.34-1.5-.92-3.16-1.51-4.98-1.78-.63-.41-.46-.88.11-1.25-1.09-.17-2.2-.18-3.29-.07l-.53-.25c4.39-2.92,7.39-7.15,9.44-11.97,9.88,4.3,11.08,17.19,3,23.95Z"/>
    <path class="cls-88" d="M32.57,86.58c.87,1.15,3.44,1.44,4.76,1.23l7.6,1.25c.47.06.88.19,1.15.6l-.31.46c-7.95,3.79-9.81,14.95-3.94,21.28l-.05.37c0,.08.01.15-.01.22-.19.52-6.24.05-7.03-.52-.71-1.16-1.5-2.18-2.44-3.19-.13-.46-.15-.96-.08-1.5-.86-1.21-.66-2.75-.47-4.12-.51-.56-.53-1.29-.05-2.19.68-.99,1-1.99.97-2.99.81-1.93,2.12-3.58,3.94-4.96.42-.75,1.02-1.37,1.81-1.86-.39-.6-4.59,1.61-5.1,2.26,0,.33-.06.66-.32.91-1.87,1.32-2.96,3.13-3.93,5.16.13.74-.11,1.5-.73,2.27.14.82.12,1.42-.22,2.2.4,2.67-.96,1.13-1.52-.31-.95-2.43-.67-4.16.56-6.36,1.69-3.02,4.45-5.56,7.56-7.01-2.4-.05-4.66.76-6.79,2.42-.34.13-.52.01-.41-.35,1.63-2.4,2.79-3.49,5.07-5.22Z"/>
    <path class="cls-49" d="M27.51,91.8c.04.26.49-.03.6-.1,2.02-1.2,3.37-2.26,5.93-2.37.61-.03,1.56.2.75.76-.67.46-1.78.78-2.51,1.33-1.4,1.05-4.15,3.87-4.85,5.44-.18.39-1.09,2.62-1.12,2.88-.19,1.47.29,2.84,1.02,4.13.07.11.43.92.64.67.05-.4-.18-.76-.16-1.15s.3-.67.33-1.08-.17-.73-.11-1.15c.09-.58.78-1.19.82-1.48.03-.2-.13-.46-.11-.73.03-.4,1.73-3.15,2.08-3.62.48-.65,1.82-1.5,2.08-1.92.32-.53-.34-.5.86-1.28.93-.6,3.37-1.98,4.42-1.89,1.58.15-.45,1.24-.7,1.47-.39.36-.41.72-.68,1.01-1.29,1.36-3.12,2.57-3.78,4.53-.16.48.05.69-.01,1.04-.15.81-1.19,2.03-1.34,3.43-.1.88.3.39.44.52.05.05-.15.77-.16.99-.02.63-.08,1.72.01,2.3.07.46.51.79.58,1.28s-.2.77-.01,1.22c.16.39,1.27,1.35,1.64,1.9.25.37.35.97.64,1.2.77.59,5.84.96,6.97.63l.36-.1,2.21,1.26.04.38c-.13.21-.3.39-.52.51-1.62.84-7.08,1.71-8.83,1.25-.12-.03-.22-.12-.32-.22-.02.14-.07.13-.15,0-.71-.06-1.4-.25-2.08-.46-.73-.23-1.55-.74-2.15-.92-.39-.12-.13.43-.23.77-.04.13-.09.13-.15,0-2.33-2.34-4.41-4.51-5.33-7.8-1.48-5.25-.11-10.24,2.87-14.62Z"/>
    <path class="cls-86" d="M112.26,18.1l-.08.33c-4.14,1.85-7.6,5.48-9.97,9.24,2.24-.86,4.11-.21,1.05,1.26l-.77.59c5.39,2.6,10.7,5.66,14.79,10.1l.36.13c.24.04.35.24.33.6,1,1.09,1.96,2.36,2.74,3.55-.05.46-.31,1.36-.24,1.69.2.91,1.77,3.41,2.26,4.5.6,1.33,1.15,2.73,1.66,4.1.05.47-.1.29-.35.12-.8-.52-1.65-1.36-2.56-1.66-1.07-4.39-3.29-8.7-6.15-12.2-2.13-2.61-5.28-5.42-8.19-7.01-.6-.33-1.96-1.19-2.52-1.34-.35-.09-2.23.72-3.06.69-.43-.02-.8-.38-.98-.34-.38.08-1.22,1.08-1.48,1.15-.32.08-.49-.29-.74-.3-.27,0-.79.68-1.1.9-.99.71-2.21,1.42-3.43,1.56l.23-1.07c-.8.4-1.59,1.43-2.38,1.77-.53.22-3.48,1.1-3.95,1.12-.5.02-.35-.54-.23-.85.16-.41,1.62-2.51,1.97-2.95.29-.36,1.32-1.12,1.37-1.24.09-.17-.07-.42-.02-.62.21-.77,2.08-1.36,2.69-1.77.67-.46,1.15-1.36,2.16-1.45.15-.43-.36-.27-.45-.55-.1-.31.08-.57.23-.82.44-.75,2.07-2.43,2.75-3.08,2.34-2.22,9.69-7.38,12.77-7.66.98-.09,1.76.53,1.29,1.52Z"/>
    <path class="cls-36" d="M110.12,152.76l-.06.37c-.87.12-1.75.15-2.62.08l.96.82c.47.47.97,1.24.39,1.81.81.39,2.07,1.33,1.02,2.11.83.64,1.06,1.51.04,2.07,1.6.33,1.83,1.65.44,2.49,1.17.93,1.44,2.19.15,3.17.93.82-.12,1.81-.86,2.38.31.09.49.27.53.51-5.76-.01-16.6-1.48-14.51-9.83,1.6-6.41,9.47-5.78,14.51-5.99Z"/>
    <path class="cls-59" d="M39.48,57.1c.85.34,1.91.07,2.82.17,2.14.24,3.96,1.27,5.77,2.29.39.22.32.48-.1.62-2.27-.32-4.81-.13-6.66,1.39-.89.73-1.44,2.21-.2,2.82.97.06,3.18.39,1.85,1.55.89.23,1.8.4,2.73.52.43.21.49.35.08.63-1.49,1.51-2.3,1.46-4.05,2.33-3.56,1.77-7.07,3.88-9.28,7.3-.96,1.48-.88,1.9-1.3,3.46-.19.73-.73,1.42-.58,2.26-.11-.14-.28-.22-.46-.46-.6-1.64-1.15-3.41.29-4.78-.65-1.29.67-3,1.54-4l1.28-1.11c.45-1.33.65-1.8,1.89-2.57,1.4-.56,2.4-1.13,3.32-2.33,2.29.26,3.92-2.32.45-1.4l-1.82.68c-.63.22-.91.2-1.22-.35-1.46.53-2.57,1.42-3.76,2.39-1.71.43-2.29.61-2.4,2.57-.97.77-1.87,1.66-2.17,2.92l-.33.16v-.31c-.13-.86-.15-1.75,0-2.61.41-8.16,5.43-11.52,12.28-14.13Z"/>
    <path class="cls-65" d="M123.63,148.46c1.6-.2,3.03-.18,4.61.16-.27.5-1.53.6-.76,1.15,1.86.4,4.17.86,5.52,2.23l-.7.15c-.66.89,2.28,1.03,2.38,1.64.05.31-.93.79-.69,1.29.28.58,1.96.95,2.07,1.33.09.29-.31.77-.41,1.09-.07.22,0,.52-.03.65l.16.39c-.46,2.06-9.06,7.77-10.41,7.33-.45-.15-.57-.34-.37-.78.61-.75.33-1.14-.31-1.71l-.13-.37c1.4-2.47-.92-5.48-2.63-7.26-.87-.35-1.17-.85-.89-1.49-.55-.45-1.23-.75-2.03-.92-.61-.68-1.42-1.06-2.43-1.15l-.15-.32c2.58-.83,4.96-1.88,7.22-3.38Z"/>
    <path class="cls-46" d="M45.16,21.17c.32.03.65.08.93.25,2.94,1.73,7.28,6.03,9.23,8.82.25.35.36.75-.18.6-1.59-.59-3.54-.62-5.22-.77l3.68,1.76c-.96.58-1.96,1.1-2.9,1.7-3.56,2.27-7.38,5.47-10.15,8.66-.1-.09-.19-.18-.27-.29-.55-.77-.53-4.3-.52-5.46.04-3.67.86-11.22,2.96-14.24.47-.68,1.78-1.82,2.43-1.04Z"/>
    <path class="cls-11" d="M80.94,25.63c-.56.2-4.51,2.97-4.69,3.38-.09.21.12.4-.06.69-.3.47-1.89,1.65-2.01,2-.13.35.54.23.45.6-.08.34-1.94,2.36-2.23,3.3-.2.64.24.42.25.55,0,.14-.87,2.52-1.01,2.52-.06,0-.3-.39-.38-.3-.07.75-.68,4.15-1.48,4.29-.57.1-2.32-3.15-2.36-3.83-.09-.07-.3.3-.38.3-.7,0-.84-3.84-1-3.98s-.44.32-.61.24c-1.49-.64.22-4.45,0-4.69-2.06,1-1.61,0-.85-1.39l1-1.69c3.8-1.36,7.63-2.23,11.74-2.31,1.19-.02,2.48-.06,3.62.31Z"/>
    <path class="cls-50" d="M71.73,152.46c-.14.3-.5.47-1.07.51-.52.22-2.46,1.15-2.4,1.64.56,1.26.44,1.77-.37,1.53-1.04-.07-2.1-.04-3.15-.16-3.57-.39-7.09-1.2-10.57-2.03l-.26-.2c.45-.59.56-1.35.61-2.07-1.5,1.5-2.69,2.59-4.6,3.53-.17-.07-.33-.15-.27-.31.64-1.01.79-1.9.44-2.65.91-2.9-.98-6.46-3.22-8.26l.84,4.03c.18,1.17.22,2.32-.38,3.37.13,1.57-.31,2.8-1.34,3.69.22.79.09,1.29-.37,1.5-.9.24-1.71.41-2.61.61,3.48-3.35,2.71-9.56,1.42-13.78-.56-1.84-1.54-3.47-2.19-5.26,1.25.15,2.41,1.33,3.22,2.23.54.6,1.02,1.46,1.54,2,.42.43.85.51,1.17.83.85.85,1.2,1.74,2.45,2.77,5.73,4.69,13.8,6.58,21.11,6.45Z"/>
    <path class="cls-10" d="M113.03,152.61c1.01.07,1.46.5,1.33,1.27l1.47.53c.49.18.59.52.49,1.01,1.37.64,1.92,1.6,1.65,2.86,1.09.26,1.45,1.03,1.07,2.3.89,1.61,1.31,2.7.13,4.34.44.84.15,1.59-.87,2.24-.19.14-.16.41.1.79-.89.12-2.31.46-3.15.46h-3.38c-.43,0-1.16.15-1.77.15l-1.38-.31c.81-.46,2.86-2.05,1.07-2.53,1.75-1.11,1.46-2.03,0-3.23.4-.47,1.19-.61,1.08-1.37-.13-.93-1.67-.68-1.85-1.09,1.86-.68,1.29-1.37,0-2.3,1.12-.06,1.12-.46.38-1.15-.26-.24-1.25-.71-1.3-.77-.4-.47.54-.06.61-.39.19-.91-1.59-2.11-2.3-2.45,0-.25,3.33.14,3.69-.23.97-.04,1.96-.02,2.92-.15Z"/>
    <path class="cls-38" d="M125.93,95.34c1.16.39,1.25,1.13,1.29,2.23l.88,1.85.85-1.28.36.13c2.32,5.67,3.32,10.31,3.84,16.43-.51-.04-1.09.08-1.58-.03-.36-.08-.54-.4-.84-.55-1.13-.55-.71.16-.82.26-.45.41-2.47-1.21-2.91-.91l.16.3c-1.26-.06-2.78-.52-3.61-1.53-1.89-2.29.43-5.1,1.27-7.33,1.2-3.17,1.5-6.19,1.11-9.56Z"/>
    <path class="cls-5" d="M105.82,136.03c.65-.8,1.57-.02,2.14.54.29.28,3.07,3.89,3.19,4.17.21.5.34,1.04.39,1.61,2.8,1.34,1.85,4.79.53,6.91,1.36.47,2.09.19,3.29-.47,2.6-1.43,5.04-3.34,7.2-5.23.13.4,1,.62,1.05.86.05.21-.27.94-.13,1.29-3.53,3.05-7.63,4.88-12.36,5.22-3.78.27-7.64-.51-11.28.92l-.33-.13c-.14-.24.84-3.1,1.52-3.05.99-.24,1.88-.62,2.67-1.12-.24-2.01,1.21-1.8,1.21.11.12.23,2.08-.55,2.3-.77.77-.78-.69-4.51-1.37-5.32l.16-.32c-.24-.58-.48-1.16-.7-1.75-1.16-.46-2.44-2.52-.83-3.07.23-.78.88-1.2,1.38-.4Z"/>
    <path class="cls-51" d="M116.41,151.84c.32-.02,1.83.41,2.11.58.29.18.34.46.51.56.39.25,2.26.52,2.3,1.24.01.22-.21.49-.09.69.08.14.71.43.93.62,1.38,1.2,3.56,4.64,3.12,6.49-.08.34-.47.56-.44.94.04.5.82.55.79,1.39-.02.54-.41.69-.47,1.16.46.44,5.57-2.49,6.28-3,.97-.69,3.82-3.32,4.16-4.37.08.26.76.64.78.72.05.22-.2,1.34-.32,1.58-.33.69-2.42,2.14-3.14,2.61-4.33,2.82-9.43,4.21-14.51,4.91l-.62-.23c-.15-.81,1.16-1.27,1.33-1.92.09-.33-.27-.48-.25-.83.02-.5.75-1.21.78-1.86.05-1.07-.84-1.86-.93-2.62-.06-.47.26-.97.13-1.34s-.96-.44-1.14-.72c-.27-.44.14-.94.02-1.39-.19-.68-1.52-1.14-1.71-1.53-.09-.19.12-.44.02-.61-.21-.35-1.94-.54-2.07-1.02-.05-.21.2-.49.08-.67-.22-.32-1.09-.05-1.01-.61,1.02-.14,2.41-.71,3.38-.77Z"/>
    <path class="cls-10" d="M61.59,28.39c-1.37-.69-2.68-1.55-3.92-2.6-3.53-2.46-8.12-5.57-12.51-4.62-.47-.01-.98.13-1.37.39-2.07,1.34-3.08,7.75-3.37,10.15-.4,3.41-.58,7.14.13,10.5-1.14,1.32-2.08,2.82-3.22,4.15-.75-5.71-.36-11.75.81-17.38.55-2.64,1.98-8.2,4.36-9.62,3.04-1.81,7.17-.16,10.08,1.22,3.67,1.74,7.1,4.25,10.23,6.81,0,.17-1.03.8-1.22,1Z"/>
    <path class="cls-56" d="M97.68,139.1c.11-.08.29-.16.36-.09.83.9,1.39,2.12,1.79,3.26.51-1.26,1.27-1.76,2.28-1.51-1.45-1.19.22-1.73,1.42-1.46.17.04,2.07.95,2.14,1.05l.31.9c.88,1.26,2.29,4.39,1.45,5.83-.13.22-2.46,1.09-2.6,1.08-.26-.02-.39-1.41-.38-1.68h-.46c-.04.37.06.8,0,1.15-.14.77-2.94,1.07-3.39,1.67-.18.24-.1.58-.23.85-.26.57-.71.93-.53,1.7-.61.24-2.41,1.28-2.92,1.69.19-1.02.55-2.01.72-3.04.13-.75.34-2.01.35-2.72,0-.65-.33-1.84-.16-2.37.02-.06.38-.21.45-.7.28-1.82-.27-3.82-.61-5.59Z"/>
    <path class="cls-32" d="M95.53,131.73c3.13-.7,5.91.91,8.51,2.43.78.28,2.52.98,1.78,1.87-.23-.01-.61-.19-.77-.09-.17.11-.23.52-.39.7-.21.23-.63.27-.67.33-.16.23.33,1.44.52,1.67.31.36.82.33,1.06.78s.39,1.33.39,1.83c-.16-.23-.3-.46-.47-.69-.59-.11-2.16-1.17-2.65-1.12-.26.02-.64.4-1.03.27-.15.54.31.44.5.8.62,1.17-.93.32-1.27.5-.36.19-.84,1.73-1.3,1.62-.26-.06-.55-1.26-.72-1.58-.28-.53-1.22-1.94-1.35-1.95-.1,0-.69-1.56-.84-1.85-.79-1.48-1.78-2.76-2.99-3.92-.21-.2-.7-.21-.39-.53.84.45,2.12,0,1.76-1.07.1,0,.21,0,.31,0Z"/>
    <path class="cls-64" d="M61.59,28.39c-.28.29-.52.83-.77,1.07-.18.18-2.79,1.75-3.22,2-.33.19-.79.23-.92.31-.45-.36-1-.72-1.54-.92.29-.06-.08-.44-.16-.53-2.82-3.56-6-6.67-9.82-9.14.03-.41.17-.43.53-.47,3.6-.41,7.09,1.53,9.99,3.38,2.05,1.31,4.03,2.76,5.91,4.3Z"/>
    <path class="cls-21" d="M27.2,74.15c.08-.91.76-1.85,1.38-2.54.22-.25.76-.49.85-.68.26-.54-.08-1.41.63-1.98.56-.45,1.37-.47,1.89-.72.39-.19,1.19-1.03,1.71-1.36.31-.2,2.45-1.32,2.6-1.17v.62c1.32-.08,3.24-1.55,4.51-.9,1.19.61-.2,1.63-.93,1.95-.62.28-.85-.09-1.27.1-.31.14-.63.8-.94,1.07-.9.79-2.34.97-3.29,1.93-.67.68-.39,1.02-.78,1.68-.29.5-1.09.89-1.52,1.4-.25.29-1.49,2.17-1.56,2.45-.13.54.32.74.22,1.27-.08.42-.49.6-.66.89-.69,1.24.21,2.54.06,3.83-1.44-1.92-3.12-5.39-2.92-7.83Z"/>
    <path class="cls-78" d="M91.23,26.85c1.69.41,1.44.79.11,1.56-.54.31-1.2.45-1.69.76-2.05,1.33-4.87,4.22-6.7,6.04-.78.78-2.15,3.02-3.59,2.7-.7-.16.07-2.99.29-3.54.15-.39.76-1.27.8-1.48.03-.19-.16-.38-.04-.66.21-.51,1.62-1.04,1.94-1.61.12-.23-.02-.47.1-.8.54-1.54,3-2.7,4.19-3.73,1.52.23,3.12.41,4.61.77Z"/>
    <path class="cls-59" d="M28.43,119.75c-.13,2.14.11,4.16.92,6.14-2.98-.54-5.46-.29-8.29.77-.18-2.63.48-5.1,1.38-7.52,1.31-1.86,4.51-.47,5.99.61Z"/>
    <path class="cls-67" d="M49.92,155.22c-1.7.84-2.55.91-4.3,1.38.39-.46-.04-1.16.06-1.54.1-.36.67-.55.94-1.07.52-.99.23-1.74.42-2.65.07-.36.37-.6.43-1.11.19-1.52-.2-2.98-.54-4.38-.17-.7-.35-1.43-.38-2.15.61-.61,2.55,2.3,2.83,2.78.62,1.08,1.26,2.94,1.33,4.2.04.65-.33,1.22-.31,1.54.02.24.31.39.3.75-.02.67-.75,1.53-.77,2.24Z"/>
    <path class="cls-75" d="M120.71,43.9c-.3,0-.43-.18-.61-.39-.81-.91-1.46-2.13-2.38-3-.12-.24-.09-.5-.08-.76-.29-.18-.36-.49-.2-.93.06-.68.32-2.08.81-2.45.23.37.32,2.24,1,1.69.85-.69,1.13-4.26,1.47-5.42.03-.11.51-.24.3-.73.25,4.08.11,7.89-.31,11.98Z"/>
    <path class="cls-23" d="M72.96,152.3c.36,1.4.96,2.76,1.38,4.14-2.07,0-4.16-.02-6.22-.16-.25-.02-.21-.15-.23-.15l.54-.15c-.98-2.2-.42-1.88,1.2-2.79.92-.52.86-.62,2.1-.74.39-.04.96.15,1.23-.15Z"/>
    <path class="cls-1" d="M27.66,113.61l-.11.27c.58,1.02-.66,1.93-1.65,2.42l.82,1.09c.96.35,1.54.93,1.72,1.75-.02.2.01.41,0,.61-.25.21-.39.03-.6-.08-1.62-.86-3.73-1.74-5.39-.53.59-1.57,2.13-5.02,3.37-6.08.6-.51,1.3.34,1.85.55Z"/>
    <path class="cls-18" d="M129.31,98.25c-.47.15-.87,1.8-1.39,1.46-.1-.06-.95-1.9-1-2.07-.15-.58.07-1.26-.45-1.71-.22-.19-.33.31-.54-.6-.25-2.16-.9-4.23-1.54-6.3,2.09,3.04,3.52,5.81,4.91,9.21Z"/>
    <path class="cls-59" d="M27.66,113.61c.67.25,1.6.38,2.3.61h.15c-.47,1.6-1.48,3.03-1.69,4.91-.42-.18-.5-.67-.84-.93s-.68-.23-1.09-.6c-.15-.14-.96-1.23-.98-1.34-.06-.4,1.27-.69,1.59-1.13.28-.38.18-.61.24-1,.04-.28-.2-.62.3-.54Z"/>
    <path class="cls-60" d="M93.38,160.9c.02,1.05.32,2.07.61,3.07-1.62.46-3.31.64-4.99.62-.26,0-.68.1-.84-.16,1.96-.1,3.98-2.11,5.22-3.53Z"/>
    <path class="cls-21" d="M27.2,73.84c-.26-.72-.26-1.9,0-2.61-.04.86,0,1.75,0,2.61Z"/>
    <path class="cls-30" d="M97.06,77.68c1.26,1.08,2.26,2.44,2.99,4.07l1.46,3.37c.88.21,1.75.29,2.61.24,1.66.15,3.31.32,4.91.77.04.21-.27.23-.42.26-.61.13-1.27.12-1.88.19l-.62.39c-3.45.41-6.91.88-10.17,2.12l-.73-.05-.26.44c-1.86.73-3.64,1.71-4.92,3.28l-.5.12c-.25.51-2.05,4.46-1.54,4.68.86-.09.93.46.22,1.65-.05.58-.22.98-.52,1.2l.29.38c.02,1.38.25,3.61,1.55,4.23.03-.14.09-.14.15,0l.28.31c.33,2.35,1.75,4.16,4.27,5.43l.05.4.6.02c2.9,1.95,6.2,2.87,9.62,3.35.76.04,1.3.3,1.6.77.06.47-1.43.97-1.61.46l-.17.31h-2.84l-.22-.31c-.06.11-.15.27-.24.26-1.07-.15-2.33-.54-3.25-.86-5.71,7.64-14.75,11.32-24.16,11.48-.14,0-.27-.04-.42-.09s-.28-.12-.42-.2l-1.84-.15c-.1.07-.21.14-.33.19s-.22.09-.33.09c-5.48-.4-10.79-2.37-15.29-5.49l-.33-.62c-.53.22-1.79-.82-1.69-1.38-.69.02-1.5-.68-1.54-1.38-.58.17-1.43-.94-1.38-1.54-.75-.16-1.42-1.08-1.38-1.84-.32.1-.38-.05-.48-.29-.25.2-.43.2-.75.14,0,.51-.4.6-.77.31.08.48-1.05.99-1.38.61-.23.67-1.39.73-2,.46-.09.15-.2.32-.37.38-1.21.45-8.34.51-8.44-.58l.21-.42c3.32.22,6.58-.41,9.67-1.54l.37-.46c2.61-.99,8.06-3.7,6.87-7.18l.13-.34c.11-.58.63-.46.92,0,.99-.96,1.53-3.14,1.34-4.55-.31-.82-.45-1.6-.42-2.36-.12-.35.05-.44.4-.34.27-.14-.05-1.45-.15-1.77l.21-.35c-.51-.07-.71-.66-.46-1.07-.32-.1-.53-.41-.61-.92l-.48-.16c-1.42-2.13-3.73-3.13-6.13-3.74l-.3-.4c-2.77-.76-5.33-.85-8.02-1.42-.29-.06-.59-.13-.73-.42,1.88-.3,3.04-.68,5.07-.61.07-.26.37-.32.91-.18l1-3.06c.56-1.67,1.41-3.09,2.54-4.28,10.93-17.09,37.73-17.91,50.21-2Z"/>
    <path class="cls-59" d="M106.74,86.58c1.21.53,2.54.65,3.8,1.03,8.34,2.56,14.79,10.65,9.83,19.28-2.55,4.44-7.47,7.17-12.41,8.09-.29.44-1.45.69-1.84.31-1.61-.61-3.41-.69-5.1-1.12-2.6-.67-4.51-1.57-6.72-3.03l.03-.37c.93-.3,1.9-.49,2.89-.55l.27-.45c7.76-4.14,6.37-17.87-2.11-20.31l-.15-.42c3.96-1.58,7.33-1.93,11.52-2.46Z"/>
    <path class="cls-79" d="M47.47,114.07c.41-.21.85-.03,1.23.15.45.63.88,1.25,1.38,1.84l.16.59c-.2,1.58-.05,1.69,1.22.94.47.48,1.03.94,1.54,1.38l.18.3c-.81.38,1.6,2.11,1.25,1.1l.26-.02c4.46,3.32,10.7,5.66,16.28,5.83l1.84.15c3.3-.06,6.53-.39,9.71-1.27,5.98-1.66,11.39-5.26,15.16-10.17l3.61.84h3.22c.3,0,1.23-.38,1.61-.46.6-.12,1.22-.3,1.84-.31.01,0,0,.16.23.15,1.9-.07,3.57-.35,5.45-.61.29.26-1.13,1.02-1.28,1.1-3.75,2.15-7.12,2.73-11.39,2.75-.36,0-.67-.19-1.03-.13-2.04.32-4.05,2.66-5.66,3.88-12.18,9.19-29.87,9.12-41.89-.31-1.32-1.04-2.43-2.31-3.9-3.16-.24-.14-2.06-1.03-2.18-1.04-.33-.03-1.16.24-1.61.3-.15-.16-.17-.31-.03-.46-.73-.37-1.1-1.29-1.35-2,.62-.12,1.4-.27,2-.46.23.08.45.29.66.61l1.02.56c.42,1.45,2.16,1.49.46,0-.28-.45-.8-1.33-.75-1.77.25-.1.53-.2.77-.31Z"/>
    <path class="cls-84" d="M105.05,130.81s.08.24.26.28c.43.1,1.39-.39,2.1.17.15.12.12.43.32.63.66.67,2.58.04,3.37.32.28.1.18.53.5.73.36.22,1.78.21,1.9.33.06.07-.2.45-.14.67.07.27,1.77.96,2.1,1,.36.04.66-.19.95-.06.25.11.41.57.64.76.98.83,3.18,2.23,3.6,3.47.17.5.09,1.49.6,1.86.35.26.58-.05.85.06.33.13.81.81.77,1.22-.03.25-.23.94-.31,1.32-.03.14.04.28-.08.45-.08.13-1.71,1.47-2,1.7-1.21.96-5.44,3.96-6.78,4.1-.15.02-1.83-.2-1.89-.27-.33-.35.78-1.85.95-2.35.4-1.2.47-3.21-.57-4.1-.25-.22-.79-.34-.92-.61-.18-.38-.06-1.13-.38-1.58-.33-.47-1.01-1.19-1.39-1.72-.58-.81-1.65-2.63-2.61-3.07-.34-.16-.72-.06-1.07-.08-.22-1.25-1.22-1.19-1.98-1.63-3.13-1.78-4.47-2.61-8.31-2.67,2.67-.79,6.8-1.53,9.52-.92Z"/>
    <path class="cls-39" d="M26.09,139.75c2.16-.31,5.05.45,6.31,2.37,1.15,1.75.7,4.18-1.6,4.49-.6.08-1.43-.11-1.95.05-.35.1-.65.77-.95,1.05-1.91,1.79-4.54.68-5.31-1.61-.91-2.7.54-5.91,3.5-6.34Z"/>
    <path class="cls-34" d="M48.08,59.56c1.15.65,2.52.9,3.38,2.07,1.81,2.47-1.13,4.49-3.34,4.95-.78.16-1.84-.01-2.34.5.09-.37-.19-.34-.45-.39-.85-.17-2-.19-2.77-.61-.46-.25.61-.46.61-.77-1-1.08-2.8.19-3.04-1.88-.27-2.4,3.73-3.66,5.58-3.72.66-.02,1.2.15,1.84.16.29,0,.62.14.54-.31Z"/>
    <path class="cls-55" d="M65.14,59.42c.31-.41,1.36.78,1.87.94,2.14.7,4.72-1.82,4.08-3.92-.2-.65-3.43-1.64-2.28-2.95.73-.83,4.82-.87,5.8-.42,1.79.83-2.45,2.74-2.58,3.5-.17,1.05,1.01,2.53,1.86,3.05,1.51.92,3.44.94,4.82-.22.22-.19.66-1.22,1.08-.62.38.55-.72,1.76-1.17,2.07-2.19,1.49-5.42.52-6.82-1.6-1.27,1.85-3.39,3.04-5.56,1.87-.46-.24-1.54-1.14-1.11-1.71Z"/>
    <path class="cls-55" d="M55.57,51.77c1.88-.23,6.49.68,6.79,2.97.25,1.96-2.53.35-3.53.14-1.88-.4-3.12-.28-4.95.28-.86.26-3.57,1.84-3.35-.26.17-1.58,3.66-2.95,5.03-3.12Z"/>
    <path class="cls-7" d="M97.06,77.68c.37-.08.47.15.69.31,1.02.7,2.17,1.48,3.13,2.24.34.27.99,1.1,1.24,1.21.39.18.85.02,1.27.12.76.18,1.54.55,2.32.75.49.13,2.39.17,1.39.88l-4.2,2.02c.14.31.9.12,1.23.15-.4.22-2.52.25-2.77.08-.17-.11-1.35-3.14-1.66-3.72-.69-1.29-1.74-2.9-2.64-4.04Z"/>
    <path class="cls-3" d="M22.86,132.68c3.09-.59,4.64,5,1.89,5.73-3.4.9-4.97-5.15-1.89-5.73Z"/>
    <path class="cls-40" d="M29.46,132.99c2.72-.44,4.24,4.3,1.7,5.09-3.22,1-4.49-4.63-1.7-5.09Z"/>
    <path class="cls-26" d="M46.85,79.67c-.72,1.13-1.65,2.95-2.18,4.2-.27.64-.95,3.09-1.12,3.33-.24.33-.78,0-1.15,0-.64-.61-1.33-1.22-2.1-1.66-.29-.16-1.53-.47-1.43-.87.08-.32,2.82-.78,3.37-1.09.84-.47,2.64-2.46,3.54-3.22.3-.25.69-.59,1.08-.69Z"/>
    <path class="cls-79" d="M43.32,115.45c.61.19.64.89,1.01,1.37.31.4,1.06.36.37,1.09-2.7.36-6.67-.42-9.21-1.46-.26-.11-1.78-.76-1.84-.84-.1-.14.08-.37.26-.43.3-.1.76.18.66-.33.05,0,.1,0,.15,0-.02.43.23.39.51.49,2.48.86,5.56.62,8.09.13Z"/>
    <path class="cls-52" d="M18.25,136.83c3.1-.53,4.33,5.29.9,4.87-2.25-.28-3.25-4.46-.9-4.87Z"/>
    <path class="cls-85" d="M118.25,36.37c-.11,1.01-.57,2.31-.61,3.38l-.31.39c-4.1-4.63-9.82-7.88-15.35-10.52-.18-.24,2.44-1.78,2.76-1.84-.09-.29-.91-.17-1.13-.14-.58.08-1.37.29-1.86.6-.12.02-.1-.15-.07-.23.42-1.34,3.77-5.09,4.91-6.15s4.29-3.52,5.68-3.76c3.1-.53,4.23,2.2,4.95,4.64,1.23,4.15,1.51,9.33,1.03,13.63Z"/>
    <path class="cls-47" d="M100.75,55.26c2.5-.15,5.39.42,6.3,3.07-.7-.03-1.52.12-2.18.35-.14.05-1,.29-.73.57.13.13,2.26.4,2.76.62-1.62,3.27-9.55,3.5-11.49.82-2.21-3.05,2.92-5.28,5.35-5.42Z"/>
    <path class="cls-14" d="M90.88,49.47c2.04-.26,7.07.58,7.4,3.12.25,1.95-2.22.49-3.03.26-1.87-.54-3.98-.51-5.83.07-.95.29-3.63,2.03-3.42-.19.14-1.48,3.54-3.09,4.89-3.26Z"/>
    <path class="cls-87" d="M82.74,144.82c2.27-.36,4.51.71,5.85,2.52,3.07,4.18-.39,8.31-4.65,4.97-6.29,2.89-6.73-6.62-1.2-7.49Z"/>
    <path class="cls-39" d="M83.97,136.83c3.01-.69,4.19,4.17,1.88,5.71-2.81,1.88-4.87-2.34-3.06-4.75.22-.3.83-.88,1.18-.97Z"/>
    <path class="cls-63" d="M90.11,139.9c3.4-.63,3.39,4.96.87,5.33-3.44.5-3.26-4.89-.87-5.33Z"/>
    <path class="cls-63" d="M78.29,138.83c3-.61,3.52,5.72-.03,5.18-2.25-.35-2.01-4.76.03-5.18Z"/>
    <path class="cls-45" d="M53,93.95c.1.5.31.81.61.92.17.34.35.72.46,1.07-.23.39-.44.82-.63,1.28h-.27c-1.07-.81-2.22-1.19-3.44-1.14,1.49.5,2.72,1.29,3.68,2.36l-.1.41c.31.19.48,1.34.46,1.72-.07,1.39-.46,2.5-.99,3.77l-.39.19-.34.07c-.82-.77-1.98-1.12-3.08-1.16,1.01.38,2.33.92,2.81,1.86,1.34,1.69-.63,3.96-1.92,5.06-1.64,1.4-3.45,2.2-5.45,2.92-.75-.48-1.96-.97-2.61-1.54-1.2-1.05-2.68-3.84-3.15-5.37-1.93-6.31,1.16-14.25,7.45-16.74,3.04.83,5.12,1.59,6.91,4.3Z"/>
    <path class="cls-62" d="M92.61,88.12c-3.98,2.11-6.71,5.41-6.76,10.06-.03,2.44-.15,4.75.95,7.04.43.89,1.29,2.22,1.82,3.17l.03.43c-1.37,1.76-2.63,3.1-4.6,4.18-.6.33-2.41,1.28-2.95,1.36-.16.02-.32-.06-.46-.14-.95.31-1.82.37-2.61.18-.33-.92-1-.88-1.84-.75l-2.62.41c-.6-.14-.85-.74-.46-1.22l-.13-.33c.05-.26.91-2.56,1.06-2.58.07-.01.15,0,.23,0l.18-.31h2.68l.22.31.08-.31c7.66-1.31,10.85-10.37,3.83-14.89l-.48.02c-1.11-.83-2.41-1.34-3.72-1.76l-.25-.41c-.25.38-.85.14-.77-.31.29-1.14.44-2.31.47-3.51.04-.46.45-.6.6-.17h.55c1.17,1.08,2.46,1.84,3.86,2.25,5.28-.66,4.28-7.07-.11-8.4-.57.04-1.15-.11-1.76-.46-.85-.16-1.54-.46-2.08-.92.73-.95.45-2.91-.87-3.38l-.36-.46-.32.19c-.74-.39-1.53-.54-2.37-.5l-.23-.31c-1.78.13-2.06,1.11-2.24,2.66-.11.44-.27.8-.47,1.07-6.16.2-11.65,4.41-9.86,11.03l-.17.45c.92,3.15,4.01,5.61,7.22,6.35l.31.4.29.17c.08.5-.14,2.47-.84,2.43-1.87-.38-3.62-1.11-5.26-2.17-1.19-.78-2.57-.24-3.37.82l-.34-.02-.48-.24c-.67-1.69-1.31-3.37-1.93-5.02-.22.21-.4.31-.65.04-.75-1.98-2.54-3.68-4.3-4.76-.06-.09-.12-.18-.17-.27-.65-1.55,2.89-6.8,4.07-8.06,11.1-11.84,32.23-9.74,37.67,6.41l-.28.24Z"/>
    <path class="cls-45" d="M95.22,89.04c1,.55,1.99.76,2.97,1.41,6.39,4.24,6.38,16.77-.97,19.78-1.85.26-4.2-1.01-5.53-2.3-.61-.59-1.7-2-1.38-2.77-.53-.43.06-.93.5-1.25,2.26-1.23-.13-.36-.94.2l-.32-.18-.35-.06c-.89-1.5-.9-2.9-.57-4.54-.45-.38.14-1.59.45-2.04.19-.28.49-.51.77-.71,3.08-1.55.56-.97-.75-.02-.91.18-.65-.9-.49-1.51l.95-2.17c1.62-2.04,3.32-2.9,5.68-3.84Z"/>
    <path class="cls-28" d="M58.68,99.79l.21.28c-.32,1-.32,2.13,0,3.13l-.21.28c1.08,3.06,4.47,5.16,7.67,5.51l.31.33c.42.14.63,1.08.31,1.38.35,2.9,3.64,3.49,5.79,2.07l.35.08c.07.27.13.83.4.91.34.1,2.73-.56,3.67-.45,1.07.13.8.84,1.19.98.45.16,1.67-.28,2.27-.05-.08.12-.16.23-.25.33s-.19.19-.3.23c-6.69,2.84-14.77,2.21-20.99-1.51-1.17-1.19-2.34-2.38-3.51-3.57l-.05-.41c.92-2.34,1.52-4.53.68-7.05.06-.56,0-2.15,0-2.84v-2.61c0-.27-.48-1.87-.61-2.23.43-.11.58-.66,1.06-.06.7,1.76,1.05,3.64,2.01,5.29Z"/>
    <path class="cls-25" d="M51.61,113.61l.77.3c9.38,8.49,23.95,9.93,34.66,3.1l.81-.17.3-.58c1.45-1.01,2.82-2.15,4-3.48l.61-.24c.96.66,2.17,1.19,3.22,1.69-3.45,4.89-9,8.05-14.74,9.52-.34-.22-.18-.43.12-.63l1.43-.51c.04-.2-.58-1.36-.68-1.4-.16-.07-3.29.76-3.4.9l1.21,1.62-.22.31c-1.16.23-2.33.52-3.53.61l-.17-.21c-2.14.02-4.29.04-6.43.05-5.44-.58-10.91-2.82-15.12-6.3-1.87-1.54-3.59-3.41-4.69-5.52.22-.03.45-.17.61-.31.58-.11,1.3.64,1.23,1.23Z"/>
    <path class="cls-48" d="M46.85,87.97c-.27-.07-1.46-.21-1.53-.31,2.78-10.55,12.34-17.85,22.97-19.32,9.4-1.3,17.92,1.16,24.78,7.66,1.01,1.19,2.02,2.39,2.91,3.67l-.15.32c.3.54-.55,1.61-1.07,1.38l-.63-.39c-5.3-7.99-14.32-11.95-23.75-10.7-.21-.21-.52-.25-.95-.12l-.46.33c-9.32,1.17-18.64,7.93-21.65,17.02l-.46.47Z"/>
    <path class="cls-77" d="M69.42,70.15c.4-.11.77-.1,1.12.02.11.17-1.75,3.29-2.48,2.97-1.46.19-2.79.57-4.01,1.16l-.53.52c-6.31,2.42-11.31,7.66-13.33,14.09-.17.08-.36.07-.58-.03-.78-.32-1.94-.69-2.76-.92.66-2.34,1.85-4.67,3.25-6.65,3.83-5.41,12.58-11.01,19.32-11.16Z"/>
    <path class="cls-71" d="M93.69,87.04c.39-.02.4.14.31.46-.39.16-1.03.43-1.38.61-.05-.61-.46-1.04-.66-1.56-1.61-4.09-4.06-6.86-7.79-9.25-8.99-5.75-22.61-3-29.31,5.06-1.75,2.1-3.15,4.72-3.54,7.44-.54-.33-1.1-.68-1.69-.92.41.09.3-.21.38-.46,2.34-6.65,7.38-11.77,14.05-14.13,5.19-2.19,11-2.31,16.4-.55,6.32,2.06,11.67,6.77,13.23,13.3Z"/>
    <path class="cls-53" d="M80.63,114.22c1.48-.64,3.45-1.45,4.75-2.39,1.13-.82,2.31-2.38,3.24-3.44.11.2.47.74.61.92.15.42-.49,1.14-.92.92-.03.14-.06.27-.12.39-.3.7-2.21,1.97-2.96,2.48-4.64,3.11-10.03,4.38-15.5,3.73-.43-.12-.71-.06-.83.18-3.46-.42-6.74-1.25-9.91-3.1-1.48-.86-3.42-2.02-4.15-3.53-.35.08-.7-.16-1.06-.73-.33-.18-.49-.4-.48-.65.58-1.1.9-1.76,1.54-2.84s1.25-2.73,1.38-3.92c.92,1.12.8,2.97.55,4.31-.1.55-.99,2.76-.95,2.91.25.93,3.01,2.52,3.48,3.59,6.53,3.95,14.41,4.18,21.33,1.16Z"/>
    <path class="cls-42" d="M92.76,112.53c-1.46,1.73-3.05,3.03-4.91,4.3-.34.24-.57.19-.7-.16-1.57.7-2.32.9-3.46-.59l-2.84,1.22c-.8.36-2.86.59-2.53-.62l.14-.35c2.63-.83,5.17-2.08,7.51-3.56.9-.57,2.19-1.43,2.34-2.54.32-.3.57-.66.92-.92.68.88,2.6,2.58,3.53,3.22Z"/>
    <path class="cls-29" d="M98.45,86.12c-1.48.37-3.05.79-4.45,1.38-.29-.06-.23-.3-.31-.46-.32-1.21-.77-2.4-1.34-3.55.04-.34,1.68-1.91,2.06-2.21l.35.08c.38-.41.91-.89,1.07-1.38.12.04.23.09.33.15.64.41,2.55,4.9,2.4,5.64-.02.12-.07.23-.12.35Z"/>
    <path class="cls-15" d="M90.31,105.16c.15.18.54,1.23.86,1.68,1.44,2.03,3.69,2.86,6.05,3.39-.17.07-.32.26-.64.36-.74.22-1.6.12-2.28.56-2.09-1.38-4.94-3.22-4.61-6.14.17-.48.7-.35.61.15Z"/>
    <path class="cls-8" d="M79.71,124.05c-.02-.48-1.62-1.82-1.38-2.15l3.97-1.06c.16.49.94,1.37.78,1.88-.15.44-1.65.3-1.83,1.02-.57.15-.99.2-1.54.31Z"/>
    <path class="cls-61" d="M98.45,86.12c-.54-2.14-1.47-4.27-2.61-6.14l-2.76-3.99c3.01,2.85,5.24,5.85,6.75,9.75-.01.25-1.11.32-1.38.38Z"/>
    <path class="cls-73" d="M89.54,92.88c-.13,1.21-.93,2.27-.77,3.53.72-.55,2-1.26,2.92-1,.2.06.37.05.3.31-1.94,1.15-2.98,1.19-3.38,3.61-.03,1.93-.34,2.29-.92,1.07.04-.66.14-1.08.38-1.7.12-.32.38-.25.4-.52.07-.84-.6.05-.75-.49-.36-1.28,1.03-3.81,1.82-4.82Z"/>
    <path class="cls-70" d="M53.3,109c.67.19,1.05.91,1.54,1.38.07.09.17.25.12.32-.49.61-2.36,2.53-2.97,2.97l-.38-.06c-.42-.41-.79-.84-1.23-1.23,1.13-.98,2.21-2.04,2.92-3.38Z"/>
    <path class="cls-35" d="M53.3,98.87c-.38-.66-.95-1.16-1.61-1.54-.27-.16-2.89-1.11-2.69-1.37,1.68-.55,3.02.17,4.37,1.07.15-.57-.1-1.1.69-1.08.3.94.4,1.59.31,2.61-.39.04-.38-.4-.77-.15.05.34-.05.5-.31.46Z"/>
    <path class="cls-4" d="M52.69,105.32c-.45-.16-.74-.4-.31-.77.41-1.2,1.06-2.47,1.08-3.77,0-.59-.28-1.23-.16-1.91.03-.15.18-.37.31-.46.49,1.39.9,2.19.75,3.74-.05.53-.94,3.43-1.44,3.47-.08,0-.19-.29-.23-.3Z"/>
    <path class="cls-15" d="M89.54,103.94c.66.15.41.86,0,1.07-.03.01-.13.36-.38.31-.19-.04-.66-.85-.77-1.08-.59-1.18-.78-2.53-.69-3.84l.77.46c.03-.43-.05-.88,0-1.31.03-.25.15-.21.15-.23-.03.98,0,1.97.22,2.92.17.7.52,1.12.7,1.68Z"/>
    <path class="cls-79" d="M46.7,114.38c.57.44.77,1.28,1.16,1.84.11.16,1.29.93.43,1.21-1.23.4-1.16-.68-1.51-1.05s-1.36-.33-1.46-1.38c.38-.13.96-.44,1.38-.61Z"/>
    <path class="cls-72" d="M52.38,104.55c.08.11.13.6.31.77-.45-.17-.76,0-.92,0-.35-.02-1.29-.88-1.74-1.1-.49-.25-3.03-.92-1.26-1.05,1.1-.09,2.94.49,3.62,1.39Z"/>
    <path class="cls-79" d="M51.46,117.6c.03.84-1.22.67-1.36.79-.07.06-.04.54-.26.59-.33.08-1.02-.57-.53-.85.19-.11.44.1.46.08.23-.21.03-1.78.31-2.15.38.46.97,1.12,1.38,1.54Z"/>
    <path class="cls-27" d="M89.54,103.94c.98-.48,1.71-1.14,2.92-.92.07.33-.17.35-.36.49-.61.44-1.78.78-1.79,1.66-.1-.12-.45-.17-.61-.15-.05,0-.12-.01-.15,0l-.14-.07c.26-.44.28-.56.14-1Z"/>
    <path class="cls-9" d="M76.18,124.66c-2.13.17-4.47.07-6.6-.15,1.19-.67,2.85-.12,4.23-.15.67-.01,1.28-.25,2-.17.26.03.68.06.38.47Z"/>
    <path class="cls-79" d="M54.68,120.36c-.31.09.3.41.15.61-.02.03-.54.16-.66.13-.19-.05-.52-.49-.73-.66-.62-.51-1.15-.3-.45-1.47.49.42,1.18,1,1.69,1.38Z"/>
    <path class="cls-79" d="M48.7,114.22c-.47.36-.78-.01-1.23-.15.2-.09.55-.51.83-.45.25.11.27.42.4.6Z"/>
    <path class="cls-35" d="M53.61,94.88c-.35.78-.64-.43-.61-.92.23.35.37.45.61.92Z"/>
    <path class="cls-79" d="M72.8,126.35c-.57.01-1.39.12-1.84-.15.59.02,1.38-.14,1.84.15Z"/>
    <path class="cls-54" d="M105.61,90.78c2.06,2.25,3.96,5.67,4.62,8.66.33,1.47.23,2.85.49,4.27.28,1.52-1.41,3.03-1.77,4.2-.1.33-.03.66-.1.97-.08.33-3.15,3.22-3.6,3.47-.47.26-1.84.72-2.22.26-.51-.61.66-1.04.85-1.47.17-.39.12-.93.36-1.48.32-.72,1.55-1.72,1.68-2.31.12-.55-.03-1.18.07-1.77s.64-1.2.68-1.75-.28-1.28-.26-1.82.34-1.04.32-1.69c-.06-1.74-1.48-5.91-2.43-7.41-.36-.56-1.75-1.74-2.33-2.28-.53-.49-2.15-1.17-.65-1.72.47-.17,1.12-.27,1.61-.16.45.1,2.3,1.62,2.67,2.02Z"/>
    <path class="cls-19" d="M113.9,92.63c.53.47,2.94,4.87,3.09,5.58.07.37-.03,1.67.04,1.73.06.05.39-.11.63.1.75.66-.15,3.48-.3,4.45-.1.64.07,1.16-.14,1.86-.16.54-2.83,4.28-3.27,4.56s-.65.38-.99-.07c-.65-.87.21-1.64.37-2.38.07-.31-.03-.68.05-1.03.39-1.67.51-1.39.28-3.12-.14-1.11.41-1.4.43-1.98.04-1.2-.74-3.75-1.23-4.9s-1.57-2.41-1.9-3.32c-.11-.29-.02-.63-.15-.92-.46-1.07-3.21-3.03-4.14-3.85-1.18-1.05.04-1.02,1.06-.9,1.34.15,3.75,1.74,4.63,2.74.28.32.36.88.53,1,.23.16.65.12,1.02.44Z"/>
    <path class="cls-76" d="M76.33,77.22l.46.38c.2.96.21,1.95.03,2.96.41.06.66.22.74.5,1.35.32,2.62.7,3.84,1.38.73.16,1.9.96,2.36,1.6,1.55,2.17-.68,5.91-3.45,5.27-.63-.15-2.03-.86-2.14-1.5l-.28.18c-.09-.25-1.93-1.09-1.99-.94-.24.65-.61,4.09-.52,4.8.4-.01.61.13.64.41.24.07.53.23.77.31l.12.36c-.28.33-.42.68-.41,1.05l1.61,1.08c.24.22.39.41.21.73-.18.25-.56.4-1.14.44-.82.67-1.62,1.35-2.39,2.02-.12.22-.38.32-.77.31-1.19,1.91-3.52,2.82-4.66.19-.54-.36-.88-.78-1.02-1.27l-.31.16c-1.41-.65-2.83-1.29-4.25-1.93l-.05-.39c-2.61-3.02-3.74-4.43-1.74-8.36,1.02-2,2.26-3.07,4.18-4.1.12-1.7.31-1.77,1.8-2.15l2.75-.41c.32-.74.59-1.55.83-2.41.3-.92.9-1.24,1.85-1.29,1.42-.01,1.69.04,2.92.61Z"/>
    <path class="cls-82" d="M78.33,95.8c.17,0,.36,0,.5.1,1.93,1.43,2,6.03,1.73,8.22,2.08-1.89,2.32-4.8,1.22-7.31.31-1.29,1.6.57,1.77,1.14.61,0,1.06,1.75.46,2,.84,3.79-2.94,7.09-6.31,8.03l-.44-.2c.11.48-1.32.79-1.46.31-.01.12-.05.3-.13.31-.55.06-2.02.06-2.57,0l-.22-.31c.26,1.05-.34,3.01-1.31,3.64-1.17.77-4.45.76-4.6-1.03-.15-.29-.32-1.04-.31-1.38l-.28-.2.25-1.31c-2.8-.51-6.96-1.35-7.96-4.32-.44-.89-.44-2.81,0-3.69s1.7-1.56,2.65-1.5,2.92,1.46,3.96,1.88c.77.31,1.69.63,2.52.7.22-.06.35-1.96.4-2.31-.42-.18-.27-.98.15-1.07.22.16,1.02.81,1.17.97.63.68.49,1.51,1.84,1.63,1.06.09,1.76-1.14,2.67-1.53l.23.41-.34,3.12c1.77-.4,2.62-2.4.88-3.5v-.34c.01-.29.11-.47.31-.68.13-.14,1.81-1.55,1.93-1.61.44-.22.82-.19,1.29-.17Z"/>
    <path class="cls-80" d="M73.11,112.84c-1.01,1.19-3.94,1.19-5.14.31-.63-.46-1.37-1.66-1-2.46.66,1.27,2.9,1.45,4.1.95,1.74-.72,1.41-3.56,1.81-3.56h2.92c.22,0,1.16-.23,1.46-.31.28-.04.51.21.7.77,4.16-.62,7.5-4.14,6.06-8.6-.01-.92-.16-1.18-.46-2-.57-1.06-1.38-1.98-2.27-2.8l-.04-.43c.28-.32,1.02.36,1.23.54,4.95,4.13,3.36,11.18-2.25,13.72-.53.24-2.43.94-2.9.94h-3.07c-.4.8-.53,2.19-1.15,2.92Z"/>
    <path class="cls-33" d="M81.25,94.72c1.22.96,1.76,1.78,2.3,3.22l-.69-.93-.85-.46c.72,2.06,1.1,3.45.27,5.57-.38.97-1.13,2.15-2.11,2.57.29-3.36.62-6.28-1.84-8.91-.18-.2-.29-.42-.54-.61-1.13-.91-2.4-.65-1-2.61,1.71.57,2.99,1,4.45,2.15Z"/>
    <path class="cls-22" d="M73.42,76.6c-1.6.49-1.56,1.56-2.01,2.8-.04.11-.22.1-.28.23-.07.15.05.47-.08.66-.22.35-3.62.47-4.24,1.14-.3.32-.16,1.26-.38,1.61-.09.14-1.85,1.14-2.23,1.46-1.53,1.31-3.18,4.56-2.9,6.59.17,1.21,1.46,2.39,2.14,3.39.09.13.55.72.3.85-.57.22-1.21-.42-1.61-.84-.65-.68-1.32-1.77-1.46-2.69-.92-2.53-.44-5.79,1.23-7.9,2.07-2.61,5.53-3.64,8.76-3.68.43-.31.02-3.26,1.48-3.59.39-.09.87-.03,1.27-.03Z"/>
    <path class="cls-44" d="M77.1,88.58c0-.38.72-.71,1.07-.77.5.27,1.49.97,1.89,1.11,2.45.87,4.48-2.03,3.72-4.18-.39-1.1-1.4-1.76-2.38-2.31.09-.3.47,0,.62.07,1.03.56,2.52,1.58,3.02,2.66.99,2.1.02,4.86-2.16,5.75-2.37.97-3.96-1.27-5.79-2.33Z"/>
    <path class="cls-12" d="M59.6,87.51c.28.3-1.22.81-1.43.95-.66.44-.96.97-1.23,1.69-.11.31-.08,1.2-.45.54-.77-1.38-.71-2.47-2.73-2.88-.13-.17,1.2-.73,1.37-.85.82-.6,1.22-1.86,1.39-2.83l1.15,2.31c.52.6,1.09,1.04,1.92,1.07Z"/>
    <path class="cls-68" d="M78.18,87.81c-.31.57-.54.62-1.07.77-.08.02-.21-.02-.31,0,.02,1.11-.19,2.21-.31,3.31-.05.45.12.41-.46.38-.2-.06-.88-.07-.93-.25-.03-1.77.33-3.53.54-5.29.17-.23.19-.08.35-.04.38.1,1.15.44,1.53.63.33.16.52.41.66.49Z"/>
    <path class="cls-66" d="M63.74,95.34c1.29.78,3.74,1.52,4.61,2.15,0,.37-.11.72-.15,1.07-1.98-.52-3.54-1.13-5.07-2.53-1.17-1.07-1.83-2.12-2.42-3.57-.07-.16-.3-.56-.04-.65.58,1.59,1.68,2.68,3.07,3.53Z"/>
    <path class="cls-16" d="M76.33,77.22c.39.18.7.18,1.08.53,1.03.94.83,1.87.76,3.08-.02.44-.38.16-.61.23-.34-.08-.72-.12-1.07-.16.05-1.25.42-2.49-.16-3.68Z"/>
    <path class="cls-24" d="M66.66,109.31c-3.1-.14-6.74-2.23-7.99-5.14-.08-.19-.27-.57,0-.7.84,1.7,3.59,2.99,5.34,3.49.51.14,2.65.48,2.8.58.33.21-.15,1.44-.16,1.77Z"/>
    <path class="cls-13" d="M69.73,116.83c-.05.05-.09.1-.08.1,2.68.1,5.39.08,8.04-.43l.65.18c.81,1.82,4.85-1.01,5.43-.9.26.05.95,1.07,1.44,1.17.44.09,2.03-.85,2.34-.58.07.06-.18.58.31.45-11.07,7.55-26.66,5.99-36.24-3.22l3.22-3.22c2.92,2.84,6.61,4.83,10.59,5.76l4.3.69Z"/>
    <path class="cls-81" d="M88.62,117.75c.17,1.38,1.59,1.16-.04,2.34-.43.31-1.36.83-1.85,1.07-.43.22-2.29,1.08-2.64,1.05-.5-.05-.98-1.18-1.46-1.46l5.98-2.99Z"/>
    <path class="cls-69" d="M91.52,115.46c.14.1.99,1.44.92,1.72-.09.34-1.39,1.25-1.71,1.17s-1.09-1.23-1.01-1.56c.06-.25,1.61-1.46,1.8-1.32Z"/>
    <path class="cls-74" d="M94.76,81.36c-.4.43-2.12,1.92-2.15,2.23s.91,2.23,1.09,2.75c.07.2.28.56,0,.7-.37-.77-.58-1.59-.94-2.36-5.02-10.64-18.04-14.16-28.69-10.39l-.11-.19c.98-.71,3.8-.74,4.56-1.28.56-.4,1.21-2.09,1.85-2.6-.23-.14-.64-.08-.92-.08.58-.16,1.47-.29,2.07-.31,2.62-.12,5.51,0,8.07.54,6.42,1.38,11.64,5.59,15.2,10.98Z"/>
    <path class="cls-17" d="M78.33,116.68c-3.01.7-6.31.49-9.37.31,0-.28.57-.15.77-.15,2.12-.06,3.91.01,6.04-.33,4.75-.77,9.08-2.94,12.54-6.27.69.26-.28,1.29-.53,1.54-1.64,1.66-7.16,4.38-9.45,4.91Z"/>
    <path class="cls-43" d="M74.8,98.25c1.04.39,1.68,1.96.99,2.91-.08.11-1.09,1.05-1.21,1.1-.32.13-.67.16-1.01.14.17-1.21.2-2.67.46-3.84.03-.14.03-.28.14-.39.05-.03.55.06.63.09Z"/>
    <path class="cls-71" d="M70.04,85.97c-.06,1.57-.41,3.12-.62,4.68-.03.22.14.45-.22.39-2.05-1.39-1.69-4.62.84-5.07Z"/>
    <path class="cls-2" d="M77.26,107.77c3.66-.92,6.81-3.83,6.76-7.83.19.26.41.69.45,1.01.37,2.63-.05,4.15-2.07,5.9-.76.66-3.77,2.47-4.68,1.93-.3-.18-.2-.77-.46-1Z"/>
  </g>
</svg>